<svg width="24" height="35" viewBox="0 0 24 35" fill="none" xmlns="http://www.w3.org/2000/svg">
<path d="M11.9 0.0786133C5.321 0.0786133 0 5.39961 0 11.9786C0 20.9036 11.9 34.0786 11.9 34.0786C11.9 34.0786 23.8 20.9036 23.8 11.9786C23.8 5.39961 18.479 0.0786133 11.9 0.0786133ZM3.4 11.9786C3.4 7.28661 7.208 3.47861 11.9 3.47861C16.592 3.47861 20.4 7.28661 20.4 11.9786C20.4 16.8746 15.504 24.2016 11.9 28.7746C8.364 24.2356 3.4 16.8236 3.4 11.9786Z" fill="#FF8500"/>
<path d="M11.9004 16.2285C14.2476 16.2285 16.1504 14.3257 16.1504 11.9785C16.1504 9.63131 14.2476 7.72852 11.9004 7.72852C9.55318 7.72852 7.65039 9.63131 7.65039 11.9785C7.65039 14.3257 9.55318 16.2285 11.9004 16.2285Z" fill="#FF8500"/>
</svg>
