<?xml version="1.0" encoding="utf-8"?>
<!-- Generator: Adobe Illustrator 27.8.0, SVG Export Plug-In . SVG Version: 6.00 Build 0)  -->
<svg version="1.2" baseProfile="tiny" id="Laag_1" xmlns="http://www.w3.org/2000/svg" xmlns:xlink="http://www.w3.org/1999/xlink"
	 x="0px" y="0px" viewBox="0 0 200 54.81" overflow="visible" xml:space="preserve">
<g>
	<path fill="#FF8500" d="M42.94,52.57c-1.97,0-3.83-0.77-5.22-2.16L2.16,14.85C0.77,13.45,0,11.6,0,9.63C0,7.66,0.77,5.8,2.16,4.41
		c1.39-1.39,3.25-2.16,5.22-2.16c1.97,0,3.83,0.77,5.22,2.16l30.34,30.34L73.28,4.41c1.39-1.39,3.25-2.16,5.22-2.16
		s3.83,0.77,5.22,2.16c2.88,2.88,2.88,7.56,0,10.44L48.16,50.41C46.77,51.8,44.91,52.57,42.94,52.57z"/>
	<path fill="#FF8500" d="M157.06,52.57c-1.97,0-3.83-0.77-5.22-2.16l-35.56-35.56c-1.4-1.4-2.16-3.25-2.16-5.22
		c0-1.97,0.77-3.83,2.16-5.22c1.4-1.39,3.25-2.16,5.22-2.16s3.83,0.77,5.22,2.16l30.34,30.34L187.4,4.41
		c1.4-1.39,3.25-2.16,5.22-2.16s3.83,0.77,5.22,2.16c2.88,2.88,2.88,7.56,0,10.44l-35.56,35.56
		C160.89,51.8,159.03,52.57,157.06,52.57z"/>
</g>
</svg>
