<svg width="557" height="570" viewBox="0 0 557 570" fill="none" xmlns="http://www.w3.org/2000/svg">
<path d="M492.97 284.6C492.97 279.96 492.77 275.37 492.48 270.8L556.54 220.03L541.35 173.28L459.69 169.86C454.74 162.06 449.35 154.57 443.46 147.5L465.44 68.8L425.67 39.91L357.61 85.13C349.09 81.74 340.32 78.83 331.31 76.54L302.85 0H253.7L225.24 76.54C216.22 78.83 207.46 81.74 198.93 85.13L130.87 39.91L91.1 68.8L113.08 147.51C107.2 154.58 101.81 162.07 96.86 169.86L15.19 173.28L0 220.03L64.07 270.81C63.78 275.37 63.58 279.96 63.58 284.6C63.58 289.24 63.78 293.83 64.07 298.4L0 349.18L15.19 395.93L96.86 399.35C101.8 407.15 107.2 414.64 113.08 421.72L91.1 500.42L130.87 529.31L198.91 484.1C207.44 487.5 216.22 490.41 225.24 492.7L253.69 569.22H302.84L331.29 492.7C340.32 490.41 349.09 487.5 357.62 484.1L425.66 529.31L465.43 500.42L443.46 421.73C449.34 414.65 454.74 407.16 459.69 399.36L541.34 395.94L556.53 349.19L492.47 298.42C492.76 293.85 492.96 289.25 492.96 284.61L492.97 284.6ZM278.26 403.91C212.39 403.91 158.98 350.47 158.98 284.6C158.98 218.73 212.38 165.32 278.26 165.32C344.14 165.32 397.57 218.72 397.57 284.6C397.57 350.48 344.17 403.91 278.26 403.91Z" fill="#000000"/>
</svg>
