<?xml version="1.0" encoding="utf-8"?>
<!-- Generator: Adobe Illustrator 27.8.0, SVG Export Plug-In . SVG Version: 6.00 Build 0)  -->
<svg version="1.2" baseProfile="tiny" id="Laag_1" xmlns="http://www.w3.org/2000/svg" xmlns:xlink="http://www.w3.org/1999/xlink"
	 x="0px" y="0px" viewBox="0 0 200 125.93" overflow="visible" xml:space="preserve">
<g>
	<path fill="#333333" d="M193.06,13.89H6.94C3.11,13.89,0,10.78,0,6.94S3.11,0,6.94,0h186.11c3.84,0,6.94,3.11,6.94,6.94
		S196.89,13.89,193.06,13.89z"/>
	<path fill="#333333" d="M193.06,69.91H6.94C3.11,69.91,0,66.8,0,62.96s3.11-6.94,6.94-6.94h186.11c3.84,0,6.94,3.11,6.94,6.94
		S196.89,69.91,193.06,69.91z"/>
	<path fill="#333333" d="M193.06,125.93H6.94c-3.84,0-6.94-3.11-6.94-6.94s3.11-6.94,6.94-6.94h186.11c3.84,0,6.94,3.11,6.94,6.94
		S196.89,125.93,193.06,125.93z"/>
</g>
</svg>
