<?xml version="1.0" encoding="utf-8"?>
<!-- Generator: Adobe Illustrator 27.8.0, SVG Export Plug-In . SVG Version: 6.00 Build 0)  -->
<svg version="1.1" id="Laag_1" xmlns="http://www.w3.org/2000/svg" xmlns:xlink="http://www.w3.org/1999/xlink" x="0px" y="0px"
	 viewBox="0 0 200 125.9" style="enable-background:new 0 0 200 125.9;" xml:space="preserve">
<style type="text/css">
	.st0{fill:#0C0C0C;}
</style>
<g>
	<path class="st0" d="M193.1,13.9H6.9c-3.8,0-6.9-3.1-6.9-7S3.1,0,6.9,0h186.1c3.8,0,6.9,3.1,6.9,6.9S196.9,13.9,193.1,13.9z"/>
	<path class="st0" d="M193.1,69.9H6.9c-3.8,0-6.9-3.1-6.9-7S3.1,56,6.9,56h186.1c3.8,0,6.9,3.1,6.9,6.9S196.9,69.9,193.1,69.9z"/>
	<path class="st0" d="M193.1,125.9H6.9c-3.8,0-6.9-3.1-6.9-6.9s3.1-6.9,6.9-6.9h186.1c3.8,0,6.9,3.1,6.9,6.9
		S196.9,125.9,193.1,125.9z"/>
</g>
</svg>
