<svg width="135" height="135" viewBox="0 0 135 135" fill="none" xmlns="http://www.w3.org/2000/svg">
<path fill-rule="evenodd" clip-rule="evenodd" d="M135 67.5C135 104.779 104.779 135 67.5 135C30.2208 135 0 104.779 0 67.5C0 30.2208 30.2208 0 67.5 0C104.779 0 135 30.2208 135 67.5ZM84.6702 32.91C80.1902 32.7 78.8502 32.66 67.5002 32.66C56.1602 32.66 54.8102 32.71 50.3302 32.91C46.1902 33.1 43.9402 33.79 42.4402 34.37C40.4502 35.14 39.0402 36.06 37.5502 37.55C36.0602 39.04 35.1402 40.46 34.3702 42.44C33.7902 43.94 33.1002 46.19 32.9102 50.33C32.7002 54.81 32.6602 56.16 32.6602 67.5C32.6602 78.84 32.7102 80.19 32.9102 84.67C33.1002 88.81 33.7902 91.06 34.3702 92.56C35.1402 94.55 36.0602 95.96 37.5502 97.45C39.0402 98.94 40.4602 99.86 42.4402 100.63C43.9402 101.21 46.1902 101.9 50.3302 102.09C54.8102 102.3 56.1502 102.34 67.5002 102.34C78.8502 102.34 80.1902 102.29 84.6702 102.09C88.8102 101.9 91.0602 101.21 92.5602 100.63C94.5502 99.86 95.9602 98.94 97.4502 97.45C98.9402 95.96 99.8602 94.54 100.63 92.56C101.21 91.06 101.9 88.81 102.09 84.67C102.3 80.19 102.34 78.84 102.34 67.5C102.34 56.16 102.29 54.81 102.09 50.33C101.9 46.19 101.21 43.94 100.63 42.44C99.8602 40.45 98.9402 39.04 97.4502 37.55C95.9602 36.06 94.5402 35.14 92.5602 34.37C91.0602 33.79 88.8102 33.1 84.6702 32.91ZM49.9802 25.26C54.5102 25.05 55.9602 25 67.5002 25C79.0402 25 80.4902 25.05 85.0202 25.26C89.5502 25.47 92.6402 26.19 95.3402 27.24C98.1402 28.32 100.51 29.78 102.87 32.14C105.23 34.51 106.68 36.88 107.77 39.67C108.83 42.38 109.54 45.47 109.75 49.99C109.96 54.52 110.01 55.97 110.01 67.51C110.01 79.05 109.96 80.5 109.75 85.03C109.54 89.56 108.82 92.65 107.77 95.35C106.69 98.15 105.23 100.52 102.87 102.88C100.5 105.24 98.1302 106.69 95.3402 107.78C92.6302 108.84 89.5402 109.55 85.0202 109.76C80.4902 109.97 79.0402 110.02 67.5002 110.02C55.9602 110.02 54.5102 109.97 49.9802 109.76C45.4502 109.55 42.3602 108.83 39.6602 107.78C36.8602 106.7 34.4902 105.24 32.1302 102.88C29.7702 100.51 28.3202 98.14 27.2302 95.35C26.1702 92.64 25.4602 89.55 25.2502 85.03C25.0402 80.5 24.9902 79.05 24.9902 67.51C24.9902 55.97 25.0402 54.52 25.2502 49.99C25.4602 45.46 26.1802 42.37 27.2302 39.67C28.3102 36.87 29.7702 34.5 32.1302 32.14C34.5002 29.78 36.8702 28.33 39.6602 27.24C42.3702 26.18 45.4602 25.47 49.9802 25.26ZM67.5002 45.68C55.4502 45.68 45.6802 55.45 45.6802 67.5C45.6802 79.55 55.4502 89.32 67.5002 89.32C79.5502 89.32 89.3202 79.55 89.3202 67.5C89.3202 55.45 79.5502 45.68 67.5002 45.68ZM67.5002 81.67C59.6802 81.67 53.3302 75.33 53.3302 67.5C53.3302 59.67 59.6702 53.33 67.5002 53.33C75.3302 53.33 81.6702 59.67 81.6702 67.5C81.6702 75.33 75.3302 81.67 67.5002 81.67ZM95.2902 44.81C95.2902 47.6267 93.0069 49.91 90.1902 49.91C87.3736 49.91 85.0902 47.6267 85.0902 44.81C85.0902 41.9933 87.3736 39.71 90.1902 39.71C93.0069 39.71 95.2902 41.9933 95.2902 44.81Z" fill="#010201"/>
</svg>
