<svg width="27" height="26" viewBox="0 0 27 26" fill="none" xmlns="http://www.w3.org/2000/svg">
<path fill-rule="evenodd" clip-rule="evenodd" d="M7.28149 0H19.7185C23.7137 0 27 3.17217 27 7.0287V18.9713C27 22.8278 23.7137 26 19.7185 26H7.28149C3.28626 26 0 22.8278 0 18.9713V7.0287C0 3.17217 3.28626 0 7.28149 0ZM20.7491 4.54088C21.5868 4.54088 22.2958 5.22523 22.2958 6.03393C22.2958 6.84263 21.5868 7.52699 20.7491 7.52699C19.8473 7.52699 19.2023 6.84263 19.2023 6.03393C19.2023 5.22523 19.8464 4.54088 20.7491 4.54088ZM13.4676 5.90959H13.5324C17.5277 5.90959 20.8788 9.14438 20.8788 13.0009C20.8788 16.9192 17.5277 20.0922 13.5324 20.0922H13.4676C9.47233 20.0922 6.18607 16.9201 6.18607 13.0009C6.18607 9.14438 9.47233 5.90959 13.4676 5.90959ZM13.4676 8.33568H13.5324C16.1746 8.33568 18.3655 10.4505 18.3655 13.0009C18.3655 15.6131 16.1746 17.7279 13.5324 17.7279H13.4676C10.8254 17.7279 8.63455 15.6131 8.63455 13.0009C8.63455 10.4505 10.8254 8.33568 13.4676 8.33568ZM7.34637 2.23913H19.6536C22.4246 2.23913 24.6794 4.41653 24.6794 7.09041V18.9087C24.6794 21.5835 22.4237 23.76 19.6536 23.76H7.34637C4.57538 23.76 2.3206 21.5826 2.3206 18.9087V7.09132C2.3206 4.41653 4.57632 2.24003 7.34637 2.24003V2.23913Z" fill="white"/>
</svg>
