<svg width="135" height="135" viewBox="0 0 135 135" fill="none" xmlns="http://www.w3.org/2000/svg">
<path fill-rule="evenodd" clip-rule="evenodd" d="M135 67.5C135 104.779 104.779 135 67.5 135C30.2207 135 0 104.779 0 67.5C0 30.2207 30.2207 0 67.5 0C104.779 0 135 30.2207 135 67.5ZM73.8301 56.9819C73.4756 57.4097 73.1152 57.8442 72.7305 58.2778L72.7295 57.4702L72.7266 56.5972C72.7197 55.1191 72.7139 53.6445 72.75 52.1699C72.7598 51.3701 72.5498 51.1001 71.7002 51.1001C67.1104 51.1401 62.5098 51.1299 57.9199 51.1001C57.1201 51.1001 56.8398 51.29 56.8398 52.1401C56.8604 69.2202 56.8604 86.3101 56.8398 103.39C56.8398 104.18 57.0596 104.38 57.8398 104.38C58.9512 104.371 60.0625 104.364 61.1738 104.359C62.3271 104.354 63.4805 104.351 64.6338 104.35C67.209 104.349 69.7842 104.358 72.3604 104.38C73.2402 104.38 73.4502 104.13 73.4502 103.27C73.4385 98.1772 73.4336 93.0845 73.4316 87.9917C73.4297 84.4546 73.4297 80.917 73.4297 77.3799C73.4248 76.7354 73.4424 76.0903 73.4785 75.4468C73.5205 74.7026 73.5889 73.96 73.6797 73.2202C74.4004 67.4302 77.3604 64.6099 83.0596 64.3101C87.2305 64.0898 90.0801 66.1201 91.2305 70.1001C91.8496 72.2598 92 74.4902 92 76.71C92.0303 85.5898 92.0303 94.46 92 103.33C92 104.13 92.1797 104.38 93.0303 104.38C97.8301 104.34 102.64 104.34 107.44 104.38C108.3 104.38 108.54 104.15 108.54 103.28C108.51 93.96 108.56 84.6299 108.54 75.3101C108.53 70.8901 108.31 66.48 107.09 62.1899C105.46 56.4702 102.06 52.4302 96.2002 50.7402C93.6396 50 91.0195 49.8101 88.3604 49.79C83.5195 49.75 79.3799 51.4102 75.8799 54.71C75.1396 55.4053 74.4951 56.1812 73.8301 56.9819ZM46.4004 77.8101L46.3994 83.0718C46.3984 87.0186 46.3975 90.9653 46.4014 94.9121C46.4043 97.6611 46.4102 100.411 46.4199 103.16C46.4199 103.672 46.3516 103.988 46.1318 104.168C45.9492 104.319 45.6611 104.375 45.2197 104.37C42.7168 104.344 40.2139 104.334 37.709 104.336C35.4111 104.339 33.1113 104.351 30.8096 104.37C30.6445 104.37 30.5049 104.361 30.3867 104.34C29.9512 104.261 29.8096 104.011 29.8096 103.39C29.8301 86.2798 29.8301 69.1699 29.8096 52.0498C29.8096 51.6538 29.8633 51.4009 30.04 51.2544C30.1807 51.1387 30.3984 51.0898 30.7305 51.0898C35.5996 51.1201 40.4697 51.1299 45.3398 51.0898C46.2803 51.0898 46.4004 51.4399 46.4004 52.25C46.3848 58.6919 46.3867 65.1338 46.3887 71.5757L46.3896 77.8101H46.4004ZM38.1299 43.77C43.4297 43.77 47.7305 39.4502 47.7305 34.1401V34.1299C47.7197 28.8999 43.4004 24.5898 38.1504 24.5898C32.8604 24.5898 28.5195 28.9399 28.54 34.2202C28.5596 39.4502 32.9004 43.77 38.1299 43.77Z" fill="#010201"/>
</svg>
