<svg width="28" height="28" viewBox="0 0 28 28" fill="none" xmlns="http://www.w3.org/2000/svg">
<g clip-path="url(#clip0_72_1134)">
<path fill-rule="evenodd" clip-rule="evenodd" d="M0.54889 9.42437H6.10805V28H0.54889V9.42437ZM3.29444 0C5.14749 0 6.65694 1.50209 6.65694 3.3461C6.65694 5.19012 5.14749 6.69221 3.29444 6.69221C1.44139 6.69221 0 5.19012 0 3.3461C0 1.50209 1.44139 0 3.29444 0ZM9.40249 9.42437H14.8925V12.02C16.0594 10.3125 17.9806 9.22009 20.1772 9.22009H21.6867C25.1864 9.22009 28 12.0888 28 15.5026V28H22.51V26.2925V17.9606C22.4408 15.8435 21.0005 14.2048 18.873 14.2048C16.7456 14.2048 14.9617 15.8435 14.8925 17.9606V28H9.40249V9.42437Z" fill="white"/>
</g>
<defs>
<clipPath id="clip0_72_1134">
<rect width="28" height="28" fill="white"/>
</clipPath>
</defs>
</svg>
