<?xml version="1.0" encoding="utf-8"?>
<!-- Generator: Adobe Illustrator 27.9.0, SVG Export Plug-In . SVG Version: 6.00 Build 0)  -->
<svg version="1.1" id="Laag_1" xmlns="http://www.w3.org/2000/svg" xmlns:xlink="http://www.w3.org/1999/xlink" x="0px" y="0px"
	 viewBox="0 0 97.9 100" style="enable-background:new 0 0 97.9 100;" xml:space="preserve">
<style type="text/css">
	.st0{fill:#FF8500;}
	.st1{fill:#FFF7F0;}
</style>
<g>
	<g>
		<path class="st0" d="M94,31c-2.5-5.8-6-11.1-10.5-15.6C79,10.9,73.8,7.4,68,4.9c-6-2.5-12.4-3.8-19-3.8s-13,1.3-19,3.8
			c-5.8,2.5-11.1,6-15.6,10.5c-4.5,4.5-8,9.7-10.5,15.6C1.3,37,0,43.4,0,50s1.3,13,3.8,19.1c2.5,5.8,6,11.1,10.5,15.6
			c4.5,4.5,9.7,8,15.5,10.5c6,2.6,12.4,3.8,19,3.8s13-1.3,19-3.8c5.8-2.5,11.1-6,15.6-10.5c4.5-4.5,8-9.7,10.5-15.6
			c2.6-6,3.8-12.4,3.8-19C97.9,43.4,96.6,37,94,31z M48.9,97.9C22.5,97.9,1,76.4,1,50s21.5-48,48-48s48,21.5,48,48
			C96.9,76.4,75.4,97.9,48.9,97.9z"/>
		<path d="M48.9,2C22.5,2,1,23.6,1,50s21.5,47.9,48,47.9s48-21.5,48-48C96.9,23.6,75.4,2,48.9,2z M51.2,5.8
			c14.5,0.7,27.2,8.5,34.8,20H72.4c-0.6-0.5-1.2-1.1-1.9-1.6c1.1-0.2,1.3-0.2,4.8,0.2c-2.2-2.4-7.1-6.3-11.8-7.7
			c-10.9-2.8-14.5,2-14.6,2.1c0-0.1-1.1-1.5-3.8-2.4L51.2,5.8z M61.4,40.5c-2.6,0.3-6.2,1.6-7.9,1.1c-1.6-0.5-2.3-2-2.4-2.1
			c0.1,0.2,1.5,4,1.8,5.5c0.2,1.6,0.5,3.6,0.4,4.8c0.8-2.1,0.2-5.9,0.2-5.9s1.1,1.2,3.1,1.2c2,0,4-2.7,4.9-3s1.8,0.8,1.9,2
			c0.1,1.2,0.6,2.4-2.5,5.7c-2.4,2.4-2.5,3.3-2.5,3.3s1-0.5,1.5-0.6s1.8,2,1.8,4.4c0,0.4,0,1.8-0.8,2.7c-0.6,0.7-2.3,1.7-2.9,1.8
			c-0.2,0-1.3,0.2-2.5-0.1c-1.7-0.3-1.8-0.4-3.4-1c-0.8-0.3-1.3-0.5-1.7-0.6c-0.7-0.2-1.6-1-0.4-2.1c1.2-1.1,2.2-1.6,2.5-3h-7.3
			c0.3,1.5,1.3,1.9,2.5,3c1.2,1.1,0.3,1.8-0.4,2.1c-0.3,0.1-0.9,0.3-1.7,0.6c-1.6,0.6-1.8,0.6-3.4,1c-1.2,0.2-2.2,0.1-2.5,0.1
			c-0.6,0-2.3-1-2.9-1.8c-0.8-0.9-0.8-2.3-0.8-2.7c0-2.3,1.2-4.5,1.8-4.4s1.5,0.6,1.5,0.6s-0.1-0.9-2.5-3.3
			c-3.1-3.2-2.6-4.4-2.5-5.7s1.1-2.2,1.9-2s2.9,3,4.9,3s3.1-1.2,3.1-1.2s-0.7,3.8,0.2,5.9c-0.1-1.3,0.2-3.2,0.4-4.8
			c0.2-1.6,1.7-5.3,1.8-5.5c-0.1,0.2-0.8,1.6-2.4,2.1c-1.7,0.5-5.3-0.8-7.9-1.1c-2.6-0.3-2.3,3.2-2.3,3.2s-0.6-0.4-0.8-3.2
			c-0.2-2.8,2.6-8.7,8.2-9.6c5.3-0.8,7.2,1.9,7.4,2.1c0.2-0.3,2.1-3,7.4-2.1c5.6,0.9,8.3,6.8,8.2,9.6c-0.2,2.8-0.8,3.2-0.8,3.2
			S64,40.2,61.4,40.5z M57.7,62.8c0,0-0.7,1.7-2.2,3.5c-1.5,1.8-3.7,3.6-6.6,3.7l0,0l0,0c-5.9-0.3-8.8-7.2-8.8-7.2s1.6,0.7,4.1-0.3
			c1.3-0.5,2.4-0.8,3.2-0.9c0.8-0.1,1.3-0.2,1.4-0.2l0,0l0,0c0.2,0,2.1,0,4.7,1.1C56.1,63.5,57.7,62.8,57.7,62.8z M46.4,5.8l-5.8,10
			l0,0l0,0c-1.8,0-3.9,0.2-6.3,0.9c-0.5,0.1-1,0.3-1.5,0.5c-0.2,0.1-0.3,0.1-0.5,0.2c-0.2,0.1-0.3,0.1-0.4,0.2
			c-0.1,0.1-0.3,0.1-0.4,0.2c-0.4,0.2-0.7,0.4-1.1,0.6c-0.1,0.1-0.3,0.2-0.4,0.2c-1.9,1.1-3.7,2.4-5.1,3.6c-0.2,0.1-0.3,0.3-0.5,0.4
			c-0.2,0.1-0.3,0.3-0.5,0.4c-0.1,0.1-0.1,0.1-0.2,0.2c-0.1,0.1-0.3,0.3-0.4,0.4c-0.1,0.1-0.1,0.1-0.2,0.2c0,0-0.1,0.1-0.1,0.1
			c-0.1,0.1-0.1,0.1-0.2,0.2c0,0,0,0,0,0.1c0,0,0,0,0,0c0.2,0,0.3,0,0.5-0.1c0.1,0,0.1,0,0.2,0c0.2,0,0.3,0,0.5-0.1c0,0,0.1,0,0.1,0
			c0.1,0,0.2,0,0.4,0c0.3,0,0.5-0.1,0.7-0.1c0,0,0,0,0,0c0.1,0,0.2,0,0.3,0c0.6-0.1,1-0.1,1.3,0c0,0,0.1,0,0.1,0c0,0,0.1,0,0.1,0
			c0,0,0.1,0,0.1,0c0,0,0.1,0,0.1,0c0,0,0.1,0,0.2,0c0.1,0,0.1,0,0.2,0l0,0l0,0c-0.1,0.1-0.2,0.2-0.3,0.3l0,0
			c-0.2,0.2-0.4,0.3-0.6,0.5c-0.1,0.1-0.2,0.2-0.3,0.3l0,0c-0.2,0.2-0.4,0.3-0.5,0.5c-0.2,0.2-0.4,0.3-0.5,0.5l0,0
			c-0.1,0.1-0.2,0.2-0.3,0.3l0,0c-0.1,0.1-0.1,0.1-0.2,0.2c-0.1,0.1-0.2,0.2-0.3,0.3c-0.1,0.1-0.2,0.2-0.3,0.3l0,0
			c-0.1,0.2-0.3,0.4-0.4,0.5l0,0c-0.4,0.5-0.7,0.9-1,1.4l0,0c-0.2,0.3-0.4,0.5-0.5,0.8c0,0.1-0.1,0.2-0.2,0.3l0,0
			c-0.1,0.2-0.3,0.5-0.4,0.7l0,0c-0.1,0.1-0.1,0.2-0.2,0.3c-0.2,0.3-0.4,0.7-0.5,1l0,0c-0.1,0.2-0.2,0.5-0.3,0.7
			c-0.2,0.3-0.3,0.7-0.5,1c-0.1,0.2-0.2,0.4-0.3,0.7c0,0.1-0.1,0.2-0.1,0.3c0,0.1-0.1,0.2-0.1,0.4c0,0,0,0.1,0,0.1c0,0,0,0.1,0,0.2
			c0,0.1-0.1,0.2-0.1,0.3c0,0.1-0.1,0.2-0.1,0.3c0,0.1-0.1,0.2-0.1,0.3c-0.1,0.2-0.1,0.4-0.2,0.7c0,0.1-0.1,0.2-0.1,0.3l-6.8-11.7
			C19.2,14.4,31.9,6.6,46.4,5.8z M25.9,32.7c-0.3,0.3-0.6,0.7-0.9,1c-0.1,0.1-0.2,0.2-0.3,0.3c-0.3,0.3-0.5,0.7-0.8,1
			c-0.1,0.2-0.3,0.4-0.4,0.5c-0.2,0.3-0.4,0.6-0.6,0.9c-0.1,0.1-0.1,0.2-0.2,0.3c-0.1,0.1-0.1,0.2-0.2,0.3c-0.3,0.4-0.5,0.8-0.7,1.2
			c0,0.1-0.1,0.2-0.1,0.3c-0.2,0.4-0.4,0.8-0.5,1.1c0,0.1-0.1,0.2-0.1,0.2c0,0.1-0.1,0.2-0.1,0.2c-0.1,0.2-0.1,0.3-0.1,0.5
			c0,0,0,0,0,0c0,0.1,0,0.1-0.1,0.2c-0.1,0.2-0.1,0.4-0.2,0.7L19.3,39c0.1-0.1,0.2-0.2,0.3-0.4c0,0,0.1-0.1,0.1-0.1
			c0.3-0.4,0.6-0.8,0.9-1.2c0.1-0.1,0.2-0.2,0.2-0.3c0,0,0,0,0,0c0,0,0,0,0,0c0.1-0.1,0.2-0.2,0.3-0.3c0,0,0.1-0.1,0.1-0.1
			c0.2-0.2,0.4-0.5,0.5-0.7c0.1-0.1,0.2-0.3,0.3-0.4c0.1-0.1,0.1-0.1,0.2-0.2c0.1-0.1,0.2-0.2,0.3-0.3c0,0,0-0.1,0.1-0.1
			c0,0,0,0,0,0c0,0,0.1-0.1,0.1-0.1l0,0c0-0.1,0.1-0.1,0.2-0.2c0.2-0.2,0.5-0.4,0.8-0.6c0,0,0,0,0,0l0,0c0,0,0.1-0.1,0.1-0.1
			c0,0,0,0,0,0c0,0,0.1-0.1,0.1-0.1c0,0,0,0,0,0c0.1,0,0.1-0.1,0.2-0.1c0,0,0,0,0,0c0,0,0,0,0,0c0,0,0.1,0,0.1-0.1c0,0,0,0,0,0
			c0.1,0,0.1-0.1,0.2-0.1c0,0,0,0,0,0c0.1,0,0.2-0.1,0.2-0.1c0.1,0,0.1-0.1,0.2-0.1c0,0,0,0,0,0c0,0,0.1,0,0.1,0c0,0,0,0,0,0
			c0,0,0.1,0,0.1,0h0c0,0,0.1,0,0.1-0.1c0,0,0,0,0,0c0,0,0.1,0,0.1,0C25.8,32.7,25.9,32.7,25.9,32.7L25.9,32.7z M4.6,50
			c0-7.2,1.7-14,4.7-20l10.5,18.2l0.4,0.8l1.4,2.3l4.1,7.1l0.7,1.2l6,10.4H9.5C6.4,64.1,4.6,57.3,4.6,50z M46.7,94.2
			c-14.6-0.7-27.2-8.5-34.8-20h23v0l0,0h23.2l-2.7,4.6L46.7,94.2z M51.4,94.2l11.5-20l1.8-3.1c-0.2,0.7-0.4,1.5-0.8,2.3
			c5.1-4.6,6.8-10.7,7.4-13.8c0.2-1.2,0.3-2,0.3-2c0.2,0.3,0.3,0.5,0.4,0.8c2.6,4,6.4,5.2,6.4,5.2c-1.8-2.2-2-4.5-2-6.3l9.7,16.8
			C78.6,85.6,66,93.4,51.4,94.2z M72.4,42l-7-12.2h23.1c3.1,6.1,4.8,12.9,4.8,20.2c0,7.2-1.7,14-4.7,20L72.4,42z"/>
	</g>
	<g>
		<g>
			<path class="st1" d="M64.5,40.5c-0.2,2.8-0.8,3.2-0.8,3.2s0.2-3.5-2.3-3.2s-6.2,1.6-7.9,1.1c-1.6-0.5-2.3-2-2.4-2.1
				c0.1,0.2,1.5,4,1.8,5.5c0.2,1.6,0.5,3.6,0.4,4.8c0.8-2.1,0.2-5.9,0.2-5.9s1.1,1.2,3.1,1.2s4-2.7,4.9-3s1.8,0.8,1.9,2
				c0.1,1.2,0.6,2.4-2.5,5.7c-2.4,2.4-2.5,3.3-2.5,3.3s1-0.5,1.5-0.6s1.8,2,1.8,4.4c0,0.4,0,1.8-0.8,2.7c-0.6,0.7-2.3,1.7-2.9,1.8
				c-0.2,0-1.3,0.2-2.5-0.1c-1.7-0.3-1.8-0.4-3.4-1c-0.8-0.3-1.3-0.5-1.7-0.6c-0.7-0.2-1.6-1-0.4-2.1c1.2-1.1,2.2-1.6,2.5-3h-7.3
				c0.3,1.5,1.3,1.9,2.5,3c1.2,1.1,0.3,1.8-0.4,2.1c-0.3,0.1-0.9,0.3-1.7,0.6c-1.6,0.6-1.8,0.6-3.4,1c-1.2,0.2-2.2,0.1-2.5,0.1
				c-0.6,0-2.3-1-2.9-1.8c-0.8-0.9-0.8-2.3-0.8-2.7c0-2.3,1.2-4.5,1.8-4.4s1.5,0.6,1.5,0.6s-0.1-0.9-2.5-3.3
				c-3.1-3.2-2.6-4.4-2.5-5.7s1.1-2.2,1.9-2s2.9,3,4.9,3s3.1-1.2,3.1-1.2s-0.7,3.8,0.2,5.9c-0.1-1.3,0.2-3.2,0.4-4.8
				c0.2-1.6,1.7-5.3,1.8-5.5c-0.1,0.2-0.8,1.6-2.4,2.1c-1.7,0.5-5.3-0.8-7.9-1.1c-2.6-0.3-2.3,3.2-2.3,3.2s-0.6-0.4-0.8-3.2
				c-0.2-2.8,2.6-8.7,8.2-9.6c5.3-0.8,7.2,1.9,7.4,2.1c0.2-0.3,2.1-3,7.4-2.1C61.9,31.8,64.7,37.7,64.5,40.5z"/>
			<path class="st1" d="M57.7,62.8c0,0-0.7,1.7-2.2,3.5c-1.5,1.8-3.7,3.6-6.6,3.7l0,0l0,0c-5.9-0.3-8.8-7.2-8.8-7.2s1.6,0.7,4.1-0.3
				c1.3-0.5,2.4-0.8,3.2-0.9c0.8-0.1,1.3-0.2,1.4-0.2l0,0l0,0c0.2,0,2.1,0,4.7,1.1C56.1,63.5,57.7,62.8,57.7,62.8z"/>
		</g>
		<g>
			<g>
				<path class="st1" d="M86.1,74.1C78.6,85.6,66,93.4,51.4,94.2L63,74.3l1.8-3.1c-0.2,0.7-0.4,1.5-0.8,2.3
					c5.1-4.6,6.8-10.7,7.4-13.8c0.2-1.2,0.3-2,0.3-2c0.2,0.3,0.3,0.5,0.4,0.8c2.6,4,6.4,5.2,6.4,5.2c-1.8-2.2-2-4.5-2-6.3L86.1,74.1
					z"/>
			</g>
			<g>
				<path d="M19.3,35.2C19.3,35.3,19.3,35.3,19.3,35.2c0,0.1-0.1,0.2-0.1,0.2c0-0.1,0.1-0.3,0.1-0.4C19.3,35.1,19.3,35.2,19.3,35.2z
					 M21.4,31c0.1-0.2,0.3-0.5,0.4-0.7C21.7,30.5,21.5,30.8,21.4,31z M22.6,24.3L22.6,24.3C22.6,24.3,22.6,24.2,22.6,24.3
					C22.6,24.2,22.6,24.3,22.6,24.3z M22.5,29.3c0.3-0.5,0.7-0.9,1-1.4C23.1,28.3,22.8,28.8,22.5,29.3z M23.9,23
					c0.1-0.1,0.3-0.3,0.5-0.4C24.2,22.7,24,22.9,23.9,23z M25.6,25.6c0.2-0.2,0.4-0.3,0.5-0.5C25.9,25.3,25.8,25.4,25.6,25.6z
					 M25.9,32.7c-0.3,0.3-0.6,0.7-0.9,1C25.3,33.4,25.6,33,25.9,32.7L25.9,32.7z M27.3,24.1c-0.1,0.1-0.2,0.2-0.3,0.3
					C27.1,24.2,27.2,24.2,27.3,24.1L27.3,24.1z M27,24.3c-0.2,0.2-0.4,0.3-0.6,0.5C26.6,24.7,26.8,24.5,27,24.3z M34.3,16.6
					c-0.5,0.1-1,0.3-1.5,0.5C33.3,16.9,33.8,16.8,34.3,16.6c2.5-0.6,4.6-0.9,6.3-0.9l0,0C38.9,15.7,36.8,16,34.3,16.6z"/>
			</g>
			<g>
				<path class="st1" d="M58.2,74.3l-2.7,4.6l-8.8,15.3c-14.6-0.7-27.2-8.5-34.8-20h23v0l0,0H58.2z"/>
			</g>
			<g>
				<path class="st1" d="M46.4,5.8l-5.8,10l0,0l0,0c-1.8,0-3.9,0.2-6.3,0.9c-0.5,0.1-1,0.3-1.5,0.5c-0.2,0.1-0.3,0.1-0.5,0.2
					c-0.2,0.1-0.3,0.1-0.4,0.2c-0.1,0.1-0.3,0.1-0.4,0.2c-0.4,0.2-0.7,0.4-1.1,0.6c-0.1,0.1-0.3,0.2-0.4,0.2
					c-1.9,1.1-3.7,2.4-5.1,3.6c-0.2,0.1-0.3,0.3-0.5,0.4c-0.2,0.1-0.3,0.3-0.5,0.4c-0.1,0.1-0.1,0.1-0.2,0.2
					c-0.1,0.1-0.3,0.3-0.4,0.4c-0.1,0.1-0.1,0.1-0.2,0.2c0,0-0.1,0.1-0.1,0.1c-0.1,0.1-0.1,0.1-0.2,0.2c0,0,0,0,0,0.1c0,0,0,0,0,0
					l0,0l0,0c0.5-0.1,0.9-0.1,1.3-0.2c0.1,0,0.2,0,0.4,0c0.3,0,0.5-0.1,0.7-0.1c0,0,0,0,0,0c0.1,0,0.2,0,0.3,0c0.6-0.1,1-0.1,1.3,0
					c0,0,0.1,0,0.1,0c0,0,0.1,0,0.1,0c0,0,0.1,0,0.1,0c0,0,0.1,0,0.1,0c0,0,0.1,0,0.2,0s0.1,0,0.2,0l0,0c-0.1,0.1-0.2,0.2-0.3,0.3
					l0,0c-0.2,0.2-0.4,0.3-0.6,0.5c-0.1,0.1-0.2,0.2-0.3,0.3l0,0c-0.2,0.2-0.4,0.3-0.5,0.5c-0.2,0.2-0.4,0.3-0.5,0.5l0,0
					c-0.1,0.1-0.2,0.2-0.3,0.3l0,0c-0.1,0.1-0.1,0.1-0.2,0.2c-0.1,0.1-0.2,0.2-0.3,0.3c-0.1,0.1-0.2,0.2-0.3,0.3l0,0
					c-0.1,0.2-0.3,0.4-0.4,0.5l0,0c-0.4,0.5-0.7,0.9-1,1.4l0,0c-0.2,0.3-0.4,0.5-0.5,0.8c0,0.1-0.1,0.2-0.2,0.3l0,0
					c-0.1,0.2-0.3,0.5-0.4,0.7l0,0c-0.1,0.1-0.1,0.2-0.2,0.3c-0.2,0.3-0.4,0.7-0.5,1l0,0c-0.1,0.2-0.2,0.5-0.3,0.7
					c-0.2,0.3-0.3,0.7-0.5,1c-0.1,0.2-0.2,0.4-0.3,0.7c0,0.1-0.1,0.2-0.1,0.3c0,0.1-0.1,0.2-0.1,0.4c0,0,0,0.1,0,0.1
					c0,0,0,0.1,0,0.2c0,0.1-0.1,0.2-0.1,0.3c0,0.1-0.1,0.2-0.1,0.3c0,0.1-0.1,0.2-0.1,0.3c-0.1,0.2-0.1,0.4-0.2,0.7
					c0,0.1-0.1,0.2-0.1,0.3l-6.8-11.7C19.2,14.4,31.9,6.6,46.4,5.8z"/>
			</g>
			<g>
				<path class="st1" d="M25.9,32.7c-0.3,0.3-0.6,0.7-0.9,1c-0.1,0.1-0.2,0.2-0.3,0.3c-0.3,0.3-0.5,0.7-0.8,1
					c-0.1,0.2-0.3,0.4-0.4,0.5c-0.2,0.3-0.4,0.6-0.6,0.9c-0.1,0.1-0.1,0.2-0.2,0.3c-0.1,0.1-0.1,0.2-0.2,0.3
					c-0.3,0.4-0.5,0.8-0.7,1.2c0,0.1-0.1,0.2-0.1,0.3c-0.2,0.4-0.4,0.8-0.5,1.1c0,0.1-0.1,0.2-0.1,0.2c0,0.1-0.1,0.2-0.1,0.2
					c-0.1,0.2-0.1,0.3-0.1,0.5c0,0,0,0,0,0c0,0.1,0,0.1-0.1,0.2c-0.1,0.2-0.1,0.4-0.2,0.7L19.3,39c0.1-0.1,0.2-0.2,0.3-0.4
					c0,0,0.1-0.1,0.1-0.1c0.5-0.7,1-1.4,1.5-2c0.2-0.2,0.4-0.5,0.5-0.7c0.1-0.1,0.2-0.3,0.3-0.4c0.1-0.1,0.1-0.1,0.2-0.2
					c0.1-0.1,0.2-0.2,0.3-0.3c0,0,0.1-0.1,0.1-0.1c0,0,0.1-0.1,0.1-0.1c0-0.1,0.1-0.1,0.2-0.2c0.2-0.2,0.5-0.4,0.8-0.6
					c0,0,0.1-0.1,0.2-0.1c0,0,0,0,0,0c0.1,0,0.1-0.1,0.2-0.1c0.1,0,0.1-0.1,0.2-0.1c0,0,0.1,0,0.1-0.1s0.1,0,0.1-0.1c0,0,0,0,0,0
					c0.1,0,0.1-0.1,0.2-0.1c0,0,0,0,0,0c0.1-0.1,0.3-0.2,0.4-0.2c0,0,0,0,0,0c0,0,0.1,0,0.1,0c0,0,0,0,0,0c0,0,0.1,0,0.1-0.1
					c0,0,0.1,0,0.1-0.1s0.1,0,0.2-0.1C25.8,32.7,25.9,32.7,25.9,32.7L25.9,32.7z"/>
			</g>
			<g>
				<path class="st1" d="M32.5,70.2H9.5C6.4,64.1,4.6,57.3,4.6,50c0-7.2,1.7-14,4.7-20l10.5,18.2l0.4,0.8l1.4,2.3l4.1,7.1l0.7,1.2
					L32.5,70.2z"/>
			</g>
			<g>
				<path class="st1" d="M86,25.7H72.4c-0.6-0.5-1.2-1.1-1.9-1.6c1.1-0.2,1.3-0.2,4.8,0.2c-2.2-2.4-7.1-6.3-11.8-7.7
					c-10.9-2.8-14.5,2-14.6,2.1c0-0.1-1.1-1.5-3.8-2.4l6.1-10.6C65.8,6.5,78.5,14.2,86,25.7z"/>
			</g>
			<g>
				<path class="st1" d="M93.2,50c0,7.2-1.7,14-4.7,20L72.4,42l-7-12.2h23.1C91.5,35.9,93.2,42.8,93.2,50z"/>
			</g>
		</g>
	</g>
</g>
</svg>
