<?xml version="1.0" encoding="utf-8"?>
<!-- Generator: Adobe Illustrator 27.7.0, SVG Export Plug-In . SVG Version: 6.00 Build 0)  -->
<svg version="1.2" baseProfile="tiny" id="Laag_1" xmlns="http://www.w3.org/2000/svg" xmlns:xlink="http://www.w3.org/1999/xlink"
	 x="0px" y="0px" viewBox="0 0 250 100" overflow="visible" xml:space="preserve">
<g>
	<g>
		<path fill="#FF8500" d="M94.02,30.95c-2.47-5.83-5.99-11.06-10.49-15.55c-4.49-4.49-9.73-8.02-15.55-10.49
			c-6.03-2.55-12.44-3.84-19.05-3.84c-6.61,0-13.01,1.29-19.05,3.84c-5.83,2.46-11.06,5.99-15.55,10.49
			c-4.49,4.49-8.02,9.73-10.49,15.55C1.3,36.99,0,43.39,0,50c0,6.61,1.3,13.01,3.85,19.05c2.46,5.83,5.99,11.06,10.49,15.55
			c4.49,4.49,9.73,8.02,15.55,10.49c6.03,2.55,12.44,3.84,19.05,3.84c6.61,0,13.01-1.29,19.05-3.84
			c5.83-2.47,11.06-5.99,15.55-10.49c4.49-4.49,8.02-9.73,10.49-15.55c2.55-6.03,3.84-12.44,3.84-19.05
			C97.87,43.39,96.57,36.99,94.02,30.95z M48.93,97.95C22.49,97.95,0.98,76.44,0.98,50c0-26.44,21.51-47.95,47.95-47.95
			c26.44,0,47.95,21.51,47.95,47.95C96.89,76.44,75.38,97.95,48.93,97.95z"/>
		<path d="M48.93,2.05C22.49,2.05,0.98,23.56,0.98,50c0,26.44,21.51,47.95,47.95,47.95c26.44,0,47.95-21.51,47.95-47.95
			C96.89,23.56,75.38,2.05,48.93,2.05z M51.22,5.75C65.77,6.49,78.47,14.25,86,25.72H72.4c-0.57-0.55-1.18-1.1-1.86-1.65
			c1.14-0.25,1.31-0.25,4.77,0.21c-2.23-2.36-7.09-6.29-11.78-7.68c-10.94-2.8-14.52,2.05-14.6,2.15c-0.04-0.06-1.12-1.51-3.85-2.38
			L51.22,5.75z M61.41,40.53c-2.56,0.32-6.22,1.62-7.89,1.13c-1.6-0.48-2.29-1.97-2.37-2.12c0.08,0.21,1.55,3.97,1.8,5.55
			c0.25,1.62,0.51,3.56,0.4,4.83c0.84-2.09,0.17-5.89,0.17-5.89s1.08,1.2,3.08,1.2c2,0,4.05-2.72,4.89-2.95
			c0.84-0.23,1.81,0.76,1.94,1.98c0.13,1.22,0.61,2.41-2.51,5.65c-2.43,2.43-2.49,3.33-2.49,3.33s0.95-0.5,1.52-0.58
			c0.57-0.08,1.81,2.05,1.79,4.37c0,0.42-0.02,1.82-0.82,2.68c-0.64,0.7-2.35,1.74-2.92,1.75c-0.25,0.01-1.26,0.18-2.48-0.07
			c-1.69-0.35-1.83-0.36-3.44-0.96c-0.79-0.3-1.33-0.45-1.65-0.57c-0.67-0.25-1.6-0.97-0.4-2.09c1.2-1.12,2.24-1.58,2.55-3.04h-7.34
			c0.32,1.46,1.35,1.92,2.55,3.04c1.2,1.12,0.27,1.84-0.4,2.09c-0.32,0.12-0.87,0.27-1.65,0.57c-1.61,0.6-1.75,0.61-3.44,0.96
			c-1.22,0.25-2.23,0.07-2.48,0.07c-0.57-0.01-2.28-1.05-2.92-1.75c-0.79-0.86-0.81-2.26-0.82-2.68c-0.02-2.32,1.22-4.45,1.79-4.37
			c0.57,0.08,1.52,0.58,1.52,0.58s-0.06-0.91-2.49-3.33c-3.12-3.25-2.64-4.43-2.51-5.65c0.13-1.22,1.1-2.21,1.94-1.98
			c0.84,0.23,2.89,2.95,4.89,2.95c2,0,3.08-1.2,3.08-1.2s-0.68,3.8,0.17,5.89c-0.11-1.27,0.15-3.21,0.4-4.83
			c0.25-1.58,1.72-5.34,1.8-5.55c-0.08,0.15-0.76,1.64-2.37,2.12c-1.67,0.5-5.33-0.81-7.89-1.13c-2.56-0.32-2.34,3.16-2.34,3.16
			s-0.57-0.44-0.76-3.23c-0.19-2.78,2.59-8.67,8.16-9.56c5.29-0.84,7.24,1.86,7.42,2.13c0.18-0.27,2.13-2.97,7.42-2.13
			c5.57,0.89,8.35,6.77,8.16,9.56c-0.19,2.79-0.76,3.23-0.76,3.23S63.98,40.21,61.41,40.53z M57.71,62.84c0,0-0.71,1.73-2.17,3.49
			c-1.45,1.76-3.65,3.56-6.61,3.69c0,0,0,0,0,0c0,0,0,0,0,0c-5.92-0.26-8.78-7.18-8.78-7.18s1.64,0.65,4.12-0.31
			c1.3-0.51,2.42-0.77,3.25-0.91c0.82-0.14,1.34-0.15,1.41-0.15c0,0,0,0,0,0c0,0,0,0,0,0c0.15,0,2.06,0.04,4.66,1.06
			C56.07,63.49,57.71,62.84,57.71,62.84z M46.43,5.76l-5.75,9.97h0v0c-1.77-0.01-3.86,0.23-6.34,0.87
			c-0.49,0.15-0.99,0.32-1.48,0.52c-0.16,0.07-0.33,0.14-0.49,0.21c-0.15,0.06-0.29,0.13-0.44,0.2c-0.15,0.07-0.29,0.14-0.44,0.21
			c-0.36,0.18-0.72,0.36-1.08,0.56c-0.14,0.08-0.28,0.16-0.43,0.24c-1.91,1.09-3.69,2.4-5.14,3.62c-0.17,0.15-0.34,0.29-0.51,0.44
			c-0.16,0.15-0.32,0.29-0.48,0.43c-0.08,0.07-0.15,0.14-0.23,0.21c-0.15,0.14-0.29,0.27-0.43,0.41c-0.07,0.07-0.14,0.13-0.2,0.2
			c-0.04,0.04-0.08,0.08-0.12,0.12c-0.08,0.08-0.15,0.15-0.22,0.23c-0.02,0.02-0.04,0.04-0.05,0.06c-0.02,0.02-0.03,0.04-0.05,0.05
			c0.17-0.02,0.34-0.05,0.5-0.07c0.06-0.01,0.12-0.02,0.18-0.02c0.16-0.02,0.31-0.04,0.45-0.06c0.05-0.01,0.09-0.01,0.14-0.02
			c0.12-0.01,0.24-0.03,0.35-0.04c0.28-0.03,0.52-0.06,0.74-0.09c0.01,0,0.01,0,0.02,0c0.1-0.01,0.19-0.02,0.27-0.03
			c0.62-0.06,0.99-0.06,1.33-0.02c0.05,0.01,0.1,0.01,0.15,0.02c0.03,0,0.06,0.01,0.09,0.01c0.04,0.01,0.08,0.01,0.12,0.02
			c0.03,0.01,0.06,0.01,0.09,0.02c0.05,0.01,0.11,0.02,0.16,0.03c0.06,0.01,0.11,0.02,0.17,0.04l0,0c0,0,0,0,0,0
			c-0.11,0.09-0.21,0.17-0.31,0.26c0,0,0,0,0,0c-0.2,0.17-0.4,0.34-0.6,0.51c-0.1,0.09-0.19,0.17-0.29,0.26c0,0,0,0,0,0
			c-0.19,0.17-0.37,0.34-0.55,0.52c-0.18,0.17-0.35,0.34-0.52,0.52c0,0,0,0,0,0c-0.11,0.12-0.22,0.23-0.33,0.34c0,0,0,0,0,0
			c-0.07,0.07-0.14,0.15-0.2,0.22c-0.1,0.11-0.2,0.22-0.29,0.32c-0.1,0.11-0.19,0.22-0.28,0.32v0c-0.15,0.17-0.29,0.35-0.43,0.52v0
			c-0.37,0.46-0.71,0.93-1.03,1.39v0c-0.18,0.26-0.35,0.52-0.52,0.78c-0.05,0.09-0.11,0.17-0.16,0.26c0,0,0,0,0,0
			c-0.14,0.23-0.28,0.46-0.41,0.69v0c-0.07,0.12-0.13,0.23-0.2,0.34c-0.19,0.34-0.38,0.69-0.55,1.03c0,0,0,0,0,0
			c-0.12,0.23-0.23,0.45-0.34,0.68c-0.17,0.34-0.33,0.68-0.48,1.01c-0.1,0.22-0.21,0.44-0.31,0.66c-0.05,0.11-0.1,0.22-0.15,0.33
			c-0.05,0.12-0.09,0.25-0.14,0.38c-0.02,0.05-0.03,0.09-0.05,0.14c-0.02,0.05-0.03,0.1-0.05,0.15c-0.03,0.1-0.06,0.2-0.1,0.31
			c-0.03,0.11-0.07,0.22-0.1,0.33c-0.03,0.1-0.06,0.19-0.09,0.29c-0.07,0.21-0.14,0.43-0.22,0.66c-0.03,0.1-0.07,0.19-0.11,0.29
			L11.75,25.9C19.22,14.39,31.89,6.57,46.43,5.76z M25.94,32.68c-0.31,0.34-0.6,0.68-0.87,1.01c-0.09,0.11-0.18,0.22-0.27,0.33
			c-0.27,0.34-0.53,0.66-0.78,0.98c-0.14,0.19-0.28,0.37-0.41,0.55c-0.22,0.31-0.43,0.6-0.62,0.9c-0.06,0.1-0.13,0.19-0.18,0.28
			c-0.06,0.09-0.12,0.19-0.17,0.28c-0.26,0.42-0.49,0.82-0.69,1.21c-0.05,0.1-0.1,0.19-0.15,0.28c-0.19,0.38-0.35,0.75-0.49,1.11
			c-0.03,0.08-0.06,0.15-0.09,0.23c-0.03,0.08-0.06,0.16-0.09,0.24c-0.06,0.15-0.11,0.31-0.15,0.46c0,0.01-0.01,0.03-0.01,0.04
			c-0.02,0.07-0.04,0.14-0.06,0.21c-0.07,0.22-0.12,0.44-0.17,0.66l-1.39-2.41c0.1-0.12,0.2-0.25,0.3-0.38
			c0.03-0.04,0.07-0.09,0.1-0.14c0.3-0.4,0.58-0.79,0.85-1.15c0.08-0.11,0.17-0.23,0.25-0.34c0.01-0.01,0.01-0.01,0.02-0.02
			c0.01-0.01,0.02-0.03,0.03-0.04c0.09-0.12,0.17-0.23,0.26-0.34c0.03-0.04,0.06-0.08,0.1-0.12c0.17-0.23,0.35-0.45,0.52-0.66
			c0.11-0.14,0.23-0.28,0.34-0.41c0.06-0.07,0.11-0.13,0.17-0.19c0.09-0.1,0.19-0.21,0.28-0.31c0.03-0.03,0.05-0.06,0.08-0.08
			c0.01-0.01,0.03-0.03,0.04-0.04c0.04-0.04,0.08-0.08,0.12-0.12v0c0.05-0.06,0.11-0.11,0.17-0.16c0.24-0.23,0.49-0.44,0.75-0.64
			c0.01-0.01,0.02-0.02,0.03-0.02c0,0,0.01-0.01,0.01-0.01c0.04-0.03,0.08-0.06,0.12-0.09c0.01-0.01,0.03-0.02,0.04-0.03
			c0.05-0.04,0.1-0.07,0.15-0.1c0.01-0.01,0.02-0.02,0.04-0.02c0.07-0.04,0.14-0.09,0.21-0.13c0.02-0.01,0.03-0.02,0.05-0.03
			c0.02-0.01,0.03-0.02,0.05-0.03c0.03-0.02,0.07-0.04,0.1-0.06c0,0,0.01,0,0.01-0.01c0.07-0.04,0.13-0.08,0.2-0.11
			c0,0,0.01,0,0.01-0.01c0.08-0.05,0.16-0.09,0.24-0.13c0.06-0.03,0.12-0.06,0.19-0.09c0.01,0,0.02-0.01,0.03-0.01
			c0.03-0.01,0.07-0.03,0.1-0.04c0.01,0,0.03-0.01,0.04-0.02c0.04-0.02,0.08-0.04,0.12-0.05c0,0,0.01,0,0.01,0
			c0.05-0.02,0.1-0.04,0.15-0.06c0.02-0.01,0.03-0.01,0.05-0.02c0.04-0.01,0.07-0.03,0.11-0.04C25.83,32.72,25.88,32.7,25.94,32.68
			L25.94,32.68z M4.62,50c0-7.18,1.71-13.96,4.74-19.96l10.52,18.22l0.43,0.75l1.35,2.33l4.12,7.13l0.72,1.24l6.02,10.43H9.46
			C6.37,64.1,4.62,57.26,4.62,50z M46.65,94.25c-14.56-0.74-27.25-8.5-34.78-19.97h23.04l0,0.01l0.01-0.01h23.25l-2.68,4.64
			L46.65,94.25z M51.43,94.24l11.52-19.95l1.79-3.1c-0.19,0.69-0.43,1.46-0.76,2.32c5.11-4.64,6.82-10.71,7.38-13.79
			c0.22-1.23,0.26-1.98,0.26-1.98c0.15,0.26,0.3,0.51,0.45,0.75c2.62,4.05,6.37,5.17,6.37,5.17c-1.75-2.16-2.04-4.5-2.03-6.33
			l9.69,16.79C78.64,85.61,65.97,93.43,51.43,94.24z M72.37,42.03l-7.03-12.18H88.4C91.5,35.9,93.24,42.75,93.24,50
			c0,7.18-1.71,13.96-4.74,19.96L72.37,42.03z"/>
	</g>
	<g>
		<path d="M120.43,35.68h3.76l-5.17,14.58h-4.45l-5.17-14.58h3.78l3.61,11.01L120.43,35.68z"/>
		<path d="M130.07,38.51c1.72,0,2.95,0.79,3.57,1.81v-1.64h3.55v11.59h-3.55v-1.64c-0.64,1.02-1.87,1.81-3.59,1.81
			c-2.83,0-5.09-2.33-5.09-5.98C124.96,40.79,127.23,38.51,130.07,38.51z M131.11,41.6c-1.33,0-2.53,1-2.53,2.85
			c0,1.85,1.2,2.89,2.53,2.89c1.35,0,2.53-1.02,2.53-2.87S132.46,41.6,131.11,41.6z"/>
		<path d="M147.77,43.97c0-1.58-0.87-2.45-2.22-2.45c-1.35,0-2.22,0.87-2.22,2.45v6.29h-3.55V38.67h3.55v1.54
			c0.71-0.98,1.95-1.66,3.51-1.66c2.68,0,4.47,1.83,4.47,4.94v6.77h-3.53V43.97z"/>
		<path fill="#FF8500" d="M161.73,35.68v11.84h4.65v2.74h-8.21V35.68H161.73z"/>
		<path fill="#FF8500" d="M173.24,50.43c-3.41,0-5.86-2.29-5.86-5.96c0-3.68,2.41-5.96,5.86-5.96c3.39,0,5.78,2.24,5.78,5.78
			c0,0.33-0.02,0.69-0.06,1.04h-8.04c0.12,1.52,1.06,2.22,2.2,2.22c1,0,1.56-0.5,1.85-1.12h3.78
			C178.18,48.69,176.13,50.43,173.24,50.43z M170.93,43.35h4.45c0-1.27-1-1.99-2.18-1.99C172.04,41.35,171.14,42.06,170.93,43.35z"
			/>
		<path fill="#FF8500" d="M186.04,50.43c-3.41,0-5.86-2.29-5.86-5.96c0-3.68,2.41-5.96,5.86-5.96c3.39,0,5.78,2.24,5.78,5.78
			c0,0.33-0.02,0.69-0.06,1.04h-8.04c0.12,1.52,1.06,2.22,2.2,2.22c1,0,1.56-0.5,1.85-1.12h3.78
			C190.98,48.69,188.92,50.43,186.04,50.43z M183.73,43.35h4.45c0-1.27-1-1.99-2.18-1.99C184.83,41.35,183.94,42.06,183.73,43.35z"
			/>
		<path fill="#FF8500" d="M205.13,50.26h-3.55v-1.58c-0.71,1-1.95,1.7-3.51,1.7c-2.68,0-4.49-1.85-4.49-4.94v-6.77h3.53v6.29
			c0,1.58,0.89,2.45,2.22,2.45c1.37,0,2.24-0.87,2.24-2.45v-6.29h3.55V50.26z"/>
		<path fill="#FF8500" d="M206.48,38.67h3.55l1.64,8.29l1.95-8.29h3.76l1.97,8.25l1.62-8.25h3.34l-3.14,11.59h-3.93l-1.83-7.52
			l-1.89,7.52h-3.91L206.48,38.67z"/>
		<path fill="#FF8500" d="M230.83,50.43c-3.41,0-5.86-2.29-5.86-5.96c0-3.68,2.41-5.96,5.86-5.96c3.39,0,5.78,2.24,5.78,5.78
			c0,0.33-0.02,0.69-0.06,1.04h-8.04c0.12,1.52,1.06,2.22,2.2,2.22c1,0,1.56-0.5,1.85-1.12h3.78
			C235.77,48.69,233.71,50.43,230.83,50.43z M228.52,43.35h4.45c0-1.27-1-1.99-2.18-1.99C229.62,41.35,228.73,42.06,228.52,43.35z"
			/>
		<path fill="#FF8500" d="M246.47,43.97c0-1.58-0.87-2.45-2.22-2.45c-1.35,0-2.22,0.87-2.22,2.45v6.29h-3.55V38.67h3.55v1.54
			c0.71-0.98,1.95-1.66,3.51-1.66c2.68,0,4.47,1.83,4.47,4.94v6.77h-3.53V43.97z"/>
		<path d="M125.98,56.59v14.44h-2.37v-9.89l-4.4,9.89h-1.64l-4.42-9.89v9.89h-2.37V56.59h2.56l5.07,11.32l5.05-11.32H125.98z"/>
		<path d="M139.5,66.19h-8.75c0.07,0.91,0.41,1.65,1.02,2.2c0.61,0.55,1.36,0.83,2.24,0.83c1.27,0,2.17-0.53,2.7-1.6h2.56
			c-0.35,1.05-0.97,1.91-1.88,2.59c-0.91,0.67-2.03,1.01-3.38,1.01c-1.09,0-2.07-0.25-2.94-0.74c-0.87-0.49-1.54-1.18-2.04-2.08
			c-0.49-0.89-0.74-1.93-0.74-3.11c0-1.18,0.24-2.21,0.72-3.11c0.48-0.89,1.15-1.58,2.02-2.07c0.87-0.48,1.86-0.73,2.98-0.73
			c1.08,0,2.04,0.24,2.89,0.71c0.84,0.47,1.5,1.13,1.97,1.98c0.47,0.85,0.71,1.83,0.71,2.94C139.59,65.45,139.56,65.84,139.5,66.19z
			 M137.12,64.28c-0.01-0.87-0.33-1.57-0.93-2.1c-0.61-0.53-1.36-0.79-2.26-0.79c-0.82,0-1.52,0.26-2.1,0.78
			c-0.58,0.52-0.93,1.22-1.04,2.11H137.12z"/>
		<path d="M141.84,62.2c0.48-0.89,1.13-1.58,1.95-2.07c0.82-0.49,1.74-0.74,2.75-0.74c0.75,0,1.49,0.16,2.21,0.49
			c0.73,0.33,1.31,0.76,1.73,1.3v-5.53h2.39v15.37h-2.39V69.3c-0.39,0.55-0.92,1.01-1.61,1.37c-0.69,0.36-1.47,0.54-2.36,0.54
			c-1,0-1.91-0.25-2.73-0.76c-0.82-0.51-1.48-1.21-1.95-2.12c-0.48-0.91-0.72-1.94-0.72-3.09C141.12,64.1,141.36,63.09,141.84,62.2z
			 M150.01,63.24c-0.33-0.58-0.75-1.02-1.28-1.33c-0.53-0.3-1.09-0.46-1.7-0.46c-0.61,0-1.18,0.15-1.7,0.45
			c-0.53,0.3-0.95,0.73-1.28,1.31c-0.33,0.57-0.49,1.26-0.49,2.05s0.16,1.48,0.49,2.08c0.33,0.6,0.75,1.05,1.29,1.36
			c0.53,0.31,1.1,0.47,1.69,0.47c0.61,0,1.18-0.15,1.7-0.46c0.53-0.3,0.95-0.75,1.28-1.34c0.33-0.59,0.49-1.28,0.49-2.07
			C150.49,64.51,150.33,63.82,150.01,63.24z"/>
		<path d="M156.12,57.63c-0.29-0.29-0.44-0.65-0.44-1.08c0-0.43,0.15-0.79,0.44-1.08c0.29-0.29,0.65-0.44,1.08-0.44
			c0.42,0,0.77,0.15,1.06,0.44c0.29,0.29,0.44,0.65,0.44,1.08c0,0.43-0.15,0.79-0.44,1.08c-0.29,0.29-0.64,0.44-1.06,0.44
			C156.77,58.07,156.41,57.92,156.12,57.63z M158.37,59.58v11.45H156V59.58H158.37z"/>
		<path d="M161.41,62.2c0.48-0.89,1.13-1.58,1.95-2.07c0.82-0.49,1.73-0.74,2.73-0.74c0.9,0,1.69,0.18,2.36,0.53
			c0.67,0.35,1.21,0.79,1.61,1.32v-1.66h2.39v11.45h-2.39v-1.7c-0.4,0.54-0.95,0.99-1.64,1.35c-0.69,0.36-1.48,0.54-2.37,0.54
			c-0.98,0-1.88-0.25-2.7-0.76c-0.82-0.51-1.46-1.21-1.94-2.12c-0.48-0.91-0.72-1.94-0.72-3.09
			C160.69,64.1,160.93,63.09,161.41,62.2z M169.57,63.24c-0.33-0.58-0.75-1.02-1.28-1.33c-0.53-0.3-1.09-0.46-1.7-0.46
			c-0.61,0-1.18,0.15-1.7,0.45c-0.53,0.3-0.95,0.73-1.28,1.31c-0.33,0.57-0.49,1.26-0.49,2.05s0.16,1.48,0.49,2.08
			c0.33,0.6,0.75,1.05,1.29,1.36c0.53,0.31,1.1,0.47,1.69,0.47c0.61,0,1.18-0.15,1.7-0.46c0.53-0.3,0.95-0.75,1.28-1.34
			c0.33-0.59,0.49-1.28,0.49-2.07C170.06,64.51,169.9,63.82,169.57,63.24z"/>
	</g>
	<g>
		<g>
			<path fill="#FFF7F0" d="M64.51,40.46c-0.19,2.79-0.76,3.23-0.76,3.23s0.22-3.48-2.34-3.16c-2.56,0.32-6.22,1.62-7.89,1.13
				c-1.6-0.48-2.29-1.97-2.37-2.12c0.08,0.21,1.55,3.97,1.8,5.55c0.25,1.62,0.51,3.56,0.4,4.83c0.84-2.09,0.17-5.89,0.17-5.89
				s1.08,1.2,3.08,1.2c2,0,4.05-2.72,4.89-2.95c0.84-0.23,1.81,0.76,1.94,1.98c0.13,1.22,0.61,2.41-2.51,5.65
				c-2.43,2.43-2.49,3.33-2.49,3.33s0.95-0.5,1.52-0.58c0.57-0.08,1.81,2.05,1.79,4.37c0,0.42-0.02,1.82-0.82,2.68
				c-0.64,0.7-2.35,1.74-2.92,1.75c-0.25,0.01-1.26,0.18-2.48-0.07c-1.69-0.35-1.83-0.36-3.44-0.96c-0.79-0.3-1.33-0.45-1.65-0.57
				c-0.67-0.25-1.6-0.97-0.4-2.09c1.2-1.12,2.24-1.58,2.55-3.04h-7.34c0.32,1.46,1.35,1.92,2.55,3.04c1.2,1.12,0.27,1.84-0.4,2.09
				c-0.32,0.12-0.87,0.27-1.65,0.57c-1.61,0.6-1.75,0.61-3.44,0.96c-1.22,0.25-2.23,0.07-2.48,0.07c-0.57-0.01-2.28-1.05-2.92-1.75
				c-0.79-0.86-0.81-2.26-0.82-2.68c-0.02-2.32,1.22-4.45,1.79-4.37c0.57,0.08,1.52,0.58,1.52,0.58s-0.06-0.91-2.49-3.33
				c-3.12-3.25-2.64-4.43-2.51-5.65c0.13-1.22,1.1-2.21,1.94-1.98c0.84,0.23,2.89,2.95,4.89,2.95c2,0,3.08-1.2,3.08-1.2
				s-0.68,3.8,0.17,5.89c-0.11-1.27,0.15-3.21,0.4-4.83c0.25-1.58,1.72-5.34,1.8-5.55c-0.08,0.15-0.76,1.64-2.37,2.12
				c-1.67,0.5-5.33-0.81-7.89-1.13c-2.56-0.32-2.34,3.16-2.34,3.16s-0.57-0.44-0.76-3.23c-0.19-2.78,2.59-8.67,8.16-9.56
				c5.29-0.84,7.24,1.86,7.42,2.13c0.18-0.27,2.13-2.97,7.42-2.13C61.92,31.79,64.7,37.68,64.51,40.46z"/>
			<path fill="#FFF7F0" d="M57.71,62.84c0,0-0.71,1.73-2.17,3.49c-1.45,1.76-3.65,3.56-6.61,3.69c0,0,0,0,0,0c0,0,0,0,0,0
				c-5.92-0.26-8.78-7.18-8.78-7.18s1.64,0.65,4.12-0.31c1.3-0.51,2.42-0.77,3.25-0.91c0.82-0.14,1.34-0.15,1.41-0.15c0,0,0,0,0,0
				c0,0,0,0,0,0c0.15,0,2.06,0.04,4.66,1.06C56.07,63.49,57.71,62.84,57.71,62.84z"/>
		</g>
		<g>
			<g>
				<path fill="#FFF7F0" d="M86.11,74.1c-7.47,11.51-20.14,19.32-34.68,20.13l11.52-19.95l1.79-3.1c-0.19,0.69-0.43,1.46-0.76,2.32
					c5.11-4.64,6.82-10.71,7.38-13.79c0.22-1.23,0.26-1.98,0.26-1.98c0.15,0.26,0.3,0.51,0.45,0.75c2.62,4.05,6.37,5.17,6.37,5.17
					c-1.75-2.16-2.04-4.5-2.03-6.33L86.11,74.1z"/>
			</g>
			<g>
				<path d="M19.28,35.23c-0.01,0.03-0.02,0.06-0.03,0.09c-0.01,0.03-0.02,0.07-0.03,0.1c0.05-0.14,0.09-0.27,0.14-0.38
					C19.33,35.1,19.31,35.17,19.28,35.23z M21.39,30.99c0.13-0.23,0.27-0.46,0.41-0.69C21.66,30.53,21.52,30.76,21.39,30.99z
					 M22.56,24.28L22.56,24.28c0.02-0.02,0.04-0.04,0.05-0.05C22.59,24.25,22.57,24.26,22.56,24.28z M22.48,29.26
					c0.32-0.46,0.66-0.93,1.03-1.39C23.14,28.33,22.8,28.79,22.48,29.26z M23.86,23.01c0.15-0.14,0.31-0.28,0.48-0.43
					C24.17,22.73,24.01,22.87,23.86,23.01z M25.58,25.61c0.18-0.17,0.36-0.34,0.55-0.52C25.94,25.27,25.75,25.44,25.58,25.61z
					 M25.94,32.68c-0.31,0.34-0.6,0.68-0.87,1.01C25.34,33.36,25.63,33.02,25.94,32.68L25.94,32.68z M27.33,24.07
					c-0.11,0.08-0.21,0.17-0.31,0.26C27.12,24.24,27.22,24.16,27.33,24.07C27.33,24.07,27.33,24.07,27.33,24.07z M27.01,24.33
					c-0.21,0.17-0.4,0.34-0.6,0.51C26.61,24.67,26.81,24.5,27.01,24.33z M34.33,16.6c-0.49,0.15-0.99,0.32-1.48,0.52
					C33.34,16.93,33.84,16.75,34.33,16.6c2.48-0.63,4.57-0.87,6.34-0.87v0C38.91,15.73,36.81,15.97,34.33,16.6z"/>
			</g>
			<g>
				<path fill="#FFF7F0" d="M58.18,74.28l-2.68,4.64l-8.85,15.33c-14.56-0.74-27.25-8.5-34.78-19.97h23.04l0,0.01l0.01-0.01H58.18z"
					/>
			</g>
			<g>
				<path fill="#FFF7F0" d="M46.43,5.76l-5.75,9.97h0v0c-1.77-0.01-3.86,0.23-6.34,0.87c-0.49,0.15-0.99,0.32-1.48,0.52
					c-0.16,0.07-0.33,0.14-0.49,0.21c-0.15,0.06-0.29,0.13-0.44,0.2c-0.15,0.07-0.29,0.14-0.44,0.21c-0.36,0.18-0.72,0.36-1.08,0.56
					c-0.14,0.08-0.28,0.16-0.43,0.24c-1.91,1.09-3.69,2.4-5.14,3.62c-0.17,0.15-0.34,0.29-0.51,0.44c-0.16,0.15-0.32,0.29-0.48,0.43
					c-0.08,0.07-0.15,0.14-0.23,0.21c-0.15,0.14-0.29,0.27-0.43,0.41c-0.07,0.07-0.14,0.13-0.2,0.2c-0.04,0.04-0.08,0.08-0.12,0.12
					c-0.08,0.08-0.15,0.15-0.22,0.23c-0.02,0.02-0.04,0.04-0.05,0.06c-0.02,0.02-0.03,0.04-0.05,0.05h0v0
					c0.49-0.07,0.91-0.12,1.28-0.17c0.12-0.01,0.24-0.03,0.35-0.04c0.28-0.03,0.52-0.06,0.74-0.09c0.01,0,0.01,0,0.02,0
					c0.1-0.01,0.19-0.02,0.27-0.03c0.62-0.06,0.99-0.06,1.33-0.02c0.05,0.01,0.1,0.01,0.15,0.02c0.03,0,0.06,0.01,0.09,0.01
					c0.04,0.01,0.08,0.01,0.12,0.02c0.03,0.01,0.06,0.01,0.09,0.02c0.05,0.01,0.11,0.02,0.16,0.03c0.05,0.01,0.11,0.03,0.17,0.04
					c0,0,0,0,0,0c-0.11,0.09-0.21,0.17-0.31,0.26c0,0,0,0,0,0c-0.2,0.17-0.4,0.34-0.6,0.51c-0.1,0.09-0.19,0.17-0.29,0.26
					c0,0,0,0,0,0c-0.19,0.17-0.37,0.34-0.55,0.52c-0.18,0.17-0.35,0.34-0.52,0.52c0,0,0,0,0,0c-0.11,0.12-0.22,0.23-0.33,0.34
					c0,0,0,0,0,0c-0.07,0.07-0.14,0.15-0.2,0.22c-0.1,0.11-0.2,0.22-0.29,0.32c-0.1,0.11-0.19,0.22-0.28,0.32v0
					c-0.15,0.17-0.29,0.35-0.43,0.52v0c-0.37,0.46-0.71,0.93-1.03,1.39v0c-0.18,0.26-0.35,0.52-0.52,0.78
					c-0.05,0.09-0.11,0.17-0.16,0.26c0,0,0,0,0,0c-0.14,0.23-0.28,0.46-0.41,0.69v0c-0.07,0.12-0.13,0.23-0.2,0.34
					c-0.19,0.34-0.38,0.69-0.55,1.03c0,0,0,0,0,0c-0.12,0.23-0.23,0.45-0.34,0.68c-0.17,0.34-0.33,0.68-0.48,1.01
					c-0.1,0.22-0.21,0.44-0.31,0.66c-0.05,0.11-0.1,0.22-0.15,0.33c-0.05,0.12-0.09,0.25-0.14,0.38c-0.02,0.05-0.03,0.09-0.05,0.14
					c-0.02,0.05-0.03,0.1-0.05,0.15c-0.03,0.1-0.06,0.2-0.1,0.31c-0.03,0.11-0.07,0.22-0.1,0.33c-0.03,0.1-0.06,0.19-0.09,0.29
					c-0.07,0.21-0.14,0.43-0.22,0.66c-0.03,0.1-0.07,0.19-0.11,0.29L11.75,25.9C19.22,14.39,31.89,6.57,46.43,5.76z"/>
			</g>
			<g>
				<path fill="#FFF7F0" d="M25.94,32.68c-0.31,0.34-0.6,0.68-0.87,1.01c-0.09,0.11-0.18,0.22-0.27,0.33
					c-0.27,0.34-0.53,0.66-0.78,0.98c-0.14,0.19-0.28,0.37-0.41,0.55c-0.22,0.31-0.43,0.6-0.62,0.9c-0.06,0.1-0.13,0.19-0.18,0.28
					c-0.06,0.09-0.12,0.19-0.17,0.28c-0.26,0.42-0.49,0.82-0.69,1.21c-0.05,0.1-0.1,0.19-0.15,0.28c-0.19,0.38-0.35,0.75-0.49,1.11
					c-0.03,0.08-0.06,0.15-0.09,0.23c-0.03,0.08-0.06,0.16-0.09,0.24c-0.06,0.15-0.11,0.31-0.15,0.46c0,0.01-0.01,0.03-0.01,0.04
					c-0.02,0.07-0.04,0.14-0.06,0.21c-0.07,0.22-0.12,0.44-0.17,0.66l-1.39-2.41c0.1-0.12,0.2-0.25,0.3-0.38
					c0.03-0.04,0.07-0.09,0.1-0.13c0.55-0.74,1.03-1.41,1.5-2.02c0.17-0.23,0.35-0.45,0.52-0.66c0.11-0.14,0.23-0.28,0.34-0.41
					c0.06-0.07,0.11-0.13,0.17-0.19c0.09-0.1,0.19-0.21,0.28-0.31c0.04-0.04,0.08-0.08,0.12-0.13c0.04-0.04,0.08-0.08,0.12-0.12
					c0.05-0.06,0.11-0.11,0.17-0.17c0.24-0.23,0.49-0.44,0.75-0.64c0.05-0.04,0.11-0.08,0.17-0.12c0.01-0.01,0.03-0.02,0.04-0.03
					c0.06-0.04,0.12-0.09,0.18-0.13c0.07-0.04,0.14-0.09,0.21-0.13c0.03-0.02,0.07-0.04,0.1-0.06c0.03-0.02,0.07-0.04,0.1-0.06
					c0,0,0.01,0,0.01-0.01c0.07-0.04,0.14-0.08,0.2-0.11c0,0,0.01,0,0.01-0.01c0.14-0.07,0.28-0.15,0.43-0.22
					c0.01,0,0.02-0.01,0.03-0.01c0.03-0.01,0.07-0.03,0.1-0.04c0.01,0,0.03-0.01,0.04-0.02c0.04-0.02,0.09-0.04,0.13-0.06
					c0.05-0.02,0.1-0.04,0.15-0.06c0.05-0.02,0.11-0.04,0.16-0.06C25.83,32.72,25.88,32.7,25.94,32.68L25.94,32.68z"/>
			</g>
			<g>
				<path fill="#FFF7F0" d="M32.52,70.15H9.46C6.37,64.1,4.62,57.26,4.62,50c0-7.18,1.71-13.96,4.74-19.96l10.52,18.22l0.43,0.75
					l1.35,2.33l4.12,7.13l0.72,1.24L32.52,70.15z"/>
			</g>
			<g>
				<path fill="#FFF7F0" d="M86,25.72H72.4c-0.57-0.55-1.18-1.1-1.86-1.65c1.14-0.25,1.31-0.25,4.77,0.21
					c-2.23-2.36-7.09-6.29-11.78-7.68c-10.94-2.8-14.52,2.05-14.6,2.15c-0.04-0.06-1.12-1.51-3.85-2.38l6.13-10.62
					C65.77,6.49,78.47,14.25,86,25.72z"/>
			</g>
			<g>
				<path fill="#FFF7F0" d="M93.24,50c0,7.18-1.71,13.96-4.74,19.96L72.37,42.03l-7.03-12.18H88.4C91.5,35.9,93.24,42.75,93.24,50z"
					/>
			</g>
		</g>
	</g>
</g>
</svg>
