<svg width="248" height="97" viewBox="0 0 248 97" fill="none" xmlns="http://www.w3.org/2000/svg">
<g clip-path="url(#clip0_150_780)">
<path d="M93.1908 29.6212C90.7471 23.8453 87.2499 18.6591 82.797 14.2046C78.3426 9.75015 73.1563 6.2529 67.3804 3.81087C61.4003 1.28227 55.0494 0 48.5008 0C41.9523 0 35.603 1.28227 29.6229 3.81087C23.8469 6.2529 18.6607 9.75015 14.2062 14.2046C9.75178 18.6591 6.25453 23.8453 3.81251 29.6212C1.2839 35.6013 0 41.9523 0 48.4992C0 55.0461 1.2839 61.3986 3.81251 67.3788C6.25453 73.1547 9.75178 78.3409 14.2062 82.7954C18.6607 87.2482 23.8469 90.7455 29.6229 93.1891C35.603 95.7177 41.9539 97 48.5008 97C55.0477 97 61.4003 95.7177 67.3804 93.1891C73.1563 90.7455 78.3426 87.2482 82.797 82.7954C87.2499 78.3409 90.7471 73.1547 93.1908 67.3788C95.7194 61.3986 97.0016 55.0477 97.0016 48.4992C97.0016 41.9506 95.7194 35.6013 93.1908 29.6212ZM48.5008 96.0297C22.2935 96.0297 0.970278 74.7081 0.970278 48.4992C0.970278 22.2903 22.2935 0.968644 48.5008 0.968644C74.7081 0.968644 96.0314 22.2919 96.0314 48.4992C96.0314 74.7065 74.7097 96.0297 48.5008 96.0297Z" fill="#FF8500"/>
<path d="M119.37 34.3059H123.098L117.97 48.7604H113.563L108.436 34.3059H112.183L115.765 45.2191L119.369 34.3059H119.37Z" fill="black"/>
<path d="M128.925 37.1074C130.633 37.1074 131.848 37.8899 132.466 38.8993V37.2724H135.986V48.7622H132.466V47.1353C131.827 48.1447 130.614 48.9272 128.903 48.9272C126.104 48.9272 123.859 46.6207 123.859 42.9977C123.859 39.3747 126.104 37.1091 128.925 37.1091V37.1074ZM129.954 40.1751C128.635 40.1751 127.441 41.1633 127.441 42.9961C127.441 44.8288 128.635 45.8579 129.954 45.8579C131.272 45.8579 132.466 44.8484 132.466 43.0157C132.466 41.1829 131.291 40.1734 129.954 40.1734V40.1751Z" fill="black"/>
<path d="M146.468 42.5223C146.468 40.9574 145.604 40.0933 144.264 40.0933C142.925 40.0933 142.061 40.9574 142.061 42.5223V48.7605H138.541V37.2707H142.061V38.7947C142.761 37.8277 143.996 37.1482 145.54 37.1482C148.196 37.1482 149.967 38.9597 149.967 42.0486V48.7605H146.466V42.5223H146.468Z" fill="black"/>
<path d="M160.305 34.3059V46.0423H164.918V48.7604H156.785V34.3059H160.305Z" fill="#FF8500"/>
<path d="M171.711 48.9255C168.335 48.9255 165.904 46.6598 165.904 43.0156C165.904 39.3713 168.292 37.1057 171.711 37.1057C175.13 37.1057 177.435 39.3289 177.435 42.8294C177.435 43.1593 177.414 43.5089 177.373 43.8585H169.405C169.529 45.3612 170.455 46.062 171.587 46.062C172.575 46.062 173.131 45.5687 173.42 44.9496H177.167C176.612 47.194 174.573 48.9238 171.711 48.9238V48.9255ZM169.426 41.9048H173.831C173.831 40.6487 172.843 39.9283 171.669 39.9283C170.494 39.9283 169.63 40.6291 169.424 41.9048H169.426Z" fill="#FF8500"/>
<path d="M184.395 48.9255C181.019 48.9255 178.588 46.6598 178.588 43.0156C178.588 39.3713 180.976 37.1057 184.395 37.1057C187.814 37.1057 190.119 39.3289 190.119 42.8294C190.119 43.1593 190.098 43.5089 190.057 43.8585H182.089C182.213 45.3612 183.139 46.062 184.271 46.062C185.259 46.062 185.815 45.5687 186.104 44.9496H189.851C189.296 47.194 187.257 48.9238 184.395 48.9238V48.9255ZM182.11 41.9048H186.516C186.516 40.6487 185.527 39.9283 184.353 39.9283C183.178 39.9283 182.314 40.6291 182.108 41.9048H182.11Z" fill="#FF8500"/>
<path d="M203.319 48.7606H199.799V47.1958C199.098 48.184 197.863 48.8848 196.32 48.8848C193.663 48.8848 191.872 47.052 191.872 43.9844V37.2725H195.372V43.5107C195.372 45.0755 196.257 45.9396 197.576 45.9396C198.894 45.9396 199.799 45.0755 199.799 43.5107V37.2725H203.319V48.7622V48.7606Z" fill="#FF8500"/>
<path d="M204.657 37.2725H208.178L209.805 45.4872L211.741 37.2725H215.469L217.426 45.4463L219.031 37.2725H222.346L219.237 48.7622H215.346L213.535 41.3088L211.661 48.7622H207.79L204.66 37.2725H204.657Z" fill="#FF8500"/>
<path d="M228.788 48.9255C225.412 48.9255 222.981 46.6598 222.981 43.0156C222.981 39.3713 225.369 37.1057 228.788 37.1057C232.207 37.1057 234.512 39.3289 234.512 42.8294C234.512 43.1593 234.49 43.5089 234.45 43.8585H226.481C226.606 45.3612 227.532 46.062 228.664 46.062C229.652 46.062 230.207 45.5687 230.497 44.9496H234.244C233.688 47.194 231.65 48.9238 228.788 48.9238V48.9255ZM226.503 41.9048H230.908C230.908 40.6487 229.92 39.9283 228.745 39.9283C227.571 39.9283 226.707 40.6291 226.501 41.9048H226.503Z" fill="#FF8500"/>
<path d="M244.293 42.5223C244.293 40.9574 243.429 40.0933 242.089 40.0933C240.75 40.0933 239.886 40.9574 239.886 42.5223V48.7605H236.365V37.2707H239.886V38.7947C240.586 37.8277 241.821 37.1482 243.365 37.1482C246.021 37.1482 247.792 38.9597 247.792 42.0486V48.7605H244.291V42.5223H244.293Z" fill="#FF8500"/>
<path d="M124.869 55.033V69.3437H122.521V59.543L118.157 69.3437H116.53L112.144 59.543V69.3437H109.797V55.033H112.329L117.353 66.2549L122.356 55.033H124.869Z" fill="black"/>
<path d="M138.273 64.5446H129.604C129.673 65.4512 130.009 66.1781 130.613 66.7269C131.218 67.2757 131.959 67.5502 132.837 67.5502C134.099 67.5502 134.991 67.0225 135.514 65.9641H138.046C137.703 67.0078 137.082 67.8622 136.182 68.527C135.282 69.1934 134.168 69.525 132.837 69.525C131.752 69.525 130.78 69.2816 129.923 68.7949C129.065 68.3081 128.392 67.6204 127.905 66.7351C127.418 65.8497 127.175 64.8239 127.175 63.656C127.175 62.4881 127.412 61.4639 127.886 60.5785C128.359 59.6932 129.024 59.0104 129.883 58.5302C130.741 58.0499 131.726 57.8098 132.838 57.8098C133.951 57.8098 134.862 58.0434 135.7 58.5106C136.536 58.9777 137.19 59.6328 137.657 60.4773C138.124 61.3218 138.358 62.2937 138.358 63.3914C138.358 63.8177 138.33 64.2016 138.276 64.5446H138.273ZM135.904 62.6498C135.891 61.7857 135.581 61.0914 134.978 60.5704C134.374 60.0493 133.626 59.7879 132.734 59.7879C131.924 59.7879 131.231 60.046 130.654 60.5606C130.078 61.0751 129.735 61.7726 129.625 62.6498H135.906H135.904Z" fill="black"/>
<path d="M140.589 60.5917C141.063 59.7129 141.708 59.0301 142.525 58.5433C143.341 58.0566 144.251 57.8116 145.252 57.8116C145.994 57.8116 146.724 57.9733 147.445 58.2951C148.165 58.6185 148.738 59.0465 149.165 59.5822V54.1052H151.533V69.3422H149.165V67.6336C148.781 68.1824 148.248 68.6349 147.569 68.9926C146.889 69.3487 146.11 69.5284 145.231 69.5284C144.243 69.5284 143.34 69.2785 142.523 68.777C141.706 68.2755 141.061 67.5764 140.587 66.6764C140.114 65.778 139.877 64.7587 139.877 63.6185C139.877 62.4784 140.114 61.4705 140.587 60.5917H140.589ZM148.681 61.6208C148.358 61.0442 147.936 60.6048 147.415 60.3026C146.894 60.0004 146.331 59.8501 145.726 59.8501C145.122 59.8501 144.56 59.9971 144.037 60.2928C143.516 60.5884 143.093 61.0213 142.771 61.5898C142.448 62.1598 142.288 62.8361 142.288 63.6185C142.288 64.4009 142.449 65.087 142.771 65.6783C143.093 66.268 143.519 66.7188 144.049 67.0276C144.576 67.3363 145.136 67.4915 145.726 67.4915C146.316 67.4915 146.892 67.3412 147.415 67.039C147.936 66.7368 148.359 66.2941 148.681 65.711C149.003 65.1278 149.165 64.445 149.165 63.6626C149.165 62.8802 149.003 62.2007 148.681 61.6241V61.6208Z" fill="black"/>
<path d="M154.746 56.0621C154.457 55.7746 154.313 55.4169 154.313 54.9906C154.313 54.5642 154.457 54.2081 154.746 53.9207C155.034 53.6332 155.392 53.4878 155.816 53.4878C156.241 53.4878 156.577 53.6315 156.867 53.9207C157.156 54.2098 157.299 54.5659 157.299 54.9906C157.299 55.4153 157.156 55.773 156.867 56.0621C156.577 56.3513 156.228 56.495 155.816 56.495C155.405 56.495 155.034 56.3513 154.746 56.0621ZM156.969 57.9978V69.3438H154.622V57.9978H156.969Z" fill="black"/>
<path d="M159.985 60.5917C160.458 59.7129 161.104 59.0301 161.92 58.5433C162.737 58.0565 163.64 57.8115 164.629 57.8115C165.521 57.8115 166.3 57.9863 166.966 58.3359C167.633 58.6854 168.163 59.1216 168.562 59.6426V57.9961H170.931V69.3421H168.562V67.6531C168.163 68.1889 167.621 68.6349 166.935 68.9909C166.249 69.347 165.467 69.5267 164.588 69.5267C163.613 69.5267 162.721 69.2768 161.911 68.7753C161.1 68.2739 160.458 67.5747 159.985 66.6747C159.511 65.7763 159.274 64.757 159.274 63.6169C159.274 62.4767 159.511 61.4688 159.985 60.59V60.5917ZM168.077 61.6208C167.753 61.0441 167.332 60.6047 166.811 60.3026C166.29 60.0004 165.726 59.8501 165.122 59.8501C164.518 59.8501 163.956 59.9971 163.433 60.2928C162.912 60.5884 162.489 61.0213 162.167 61.5897C161.844 62.1598 161.684 62.8361 161.684 63.6185C161.684 64.4009 161.845 65.087 162.167 65.6783C162.489 66.268 162.915 66.7188 163.444 67.0275C163.972 67.3362 164.532 67.4914 165.122 67.4914C165.712 67.4914 166.288 67.3412 166.811 67.039C167.332 66.7368 167.755 66.2941 168.077 65.711C168.399 65.1278 168.56 64.445 168.56 63.6626C168.56 62.8802 168.399 62.2006 168.077 61.624V61.6208Z" fill="black"/>
<path d="M57.6629 72.5684L55.0085 77.1682L46.2368 92.3594C31.81 91.6276 19.2242 83.9324 11.7642 72.5684H34.6016L34.6065 72.5765L34.6196 72.5684H57.6629Z" fill="#FF8500"/>
<path d="M85.3533 72.392C77.9456 83.7968 65.3891 91.546 50.9771 92.3464L62.3966 72.5684L64.1722 69.4942C63.9876 70.1754 63.7426 70.9398 63.4208 71.7941C68.4894 67.1976 70.1817 61.1815 70.7354 58.1253L71.4427 56.9002C74.0367 60.9185 77.7561 62.0244 77.7561 62.0244C76.0181 59.8796 75.7322 57.5601 75.7469 55.7502L85.3533 72.392Z" fill="#FF8500"/>
<path d="M27.0878 22.7998C25.9591 22.5482 25.7925 22.5482 22.3573 23.0089C24.569 20.6681 29.3877 16.7772 34.03 15.3969C36.4851 14.7697 38.5645 14.5312 40.3156 14.5377L46.0213 4.65527C31.6092 5.4573 19.0528 13.2065 11.645 24.6113L18.3341 36.1975C18.7016 35.2288 18.9352 34.2912 19.1818 33.6738C20.7712 30.2027 22.6105 26.3967 27.0862 22.7998H27.0878Z" fill="#FF8500"/>
<path d="M19.5608 37.1189C19.4253 37.3002 19.293 37.4701 19.1606 37.6269L20.5409 40.0183C21.0816 37.6792 22.4651 34.9611 25.7076 31.3315C22.916 32.3198 21.7399 34.1852 19.5608 37.1189Z" fill="#FF8500"/>
<path d="M32.2349 68.47H9.37779C6.31341 62.4785 4.58521 55.6914 4.58521 48.5009C4.58521 41.3104 6.27911 34.6638 9.28468 28.718L19.7111 46.7776L20.1407 47.5192L21.4752 49.8322L25.5573 56.9034L26.2694 58.1351L32.2365 68.47H32.2349Z" fill="#FF8500"/>
<path d="M85.2374 24.4333H71.7597C71.1978 23.8845 70.5853 23.3405 69.9139 22.7998C71.0443 22.5499 71.2109 22.5499 74.6444 23.0089C72.4327 20.6682 67.614 16.7789 62.9717 15.397C52.132 12.6266 48.5776 17.4274 48.5041 17.5303C48.4633 17.4731 47.3933 16.0308 44.6851 15.1699L50.7648 4.64062C65.1916 5.37405 77.7774 13.0693 85.2374 24.4333Z" fill="#FF8500"/>
<path d="M92.4181 48.5008C92.4181 55.6178 90.7225 62.3395 87.7169 68.2854L71.7335 40.603L64.7651 28.5317H87.6255C90.6898 34.5233 92.4181 41.3103 92.4181 48.5008Z" fill="#FF8500"/>
</g>
<path d="M63.9468 39.048C63.7589 41.8086 63.1937 42.248 63.1937 42.248C63.1937 42.248 63.4142 38.7981 60.8726 39.1117C58.3325 39.4253 54.7046 40.7207 53.0515 40.229C51.4622 39.7553 50.7859 38.2738 50.7043 38.1267C50.7859 38.3342 52.243 42.0634 52.488 43.6283C52.7379 45.2388 52.9895 47.1614 52.8849 48.4159C53.7213 46.3463 53.0515 42.5828 53.0515 42.5828C53.0515 42.5828 54.1198 43.7687 56.1061 43.7687C58.0924 43.7687 60.1195 41.0768 60.9559 40.8465C61.7922 40.6161 62.7543 41.5995 62.8801 42.8115C63.0059 44.0252 63.4861 45.1964 60.3923 48.4159C57.9879 50.8204 57.9242 51.7204 57.9242 51.7204C57.9242 51.7204 58.8634 51.2222 59.4286 51.1455C59.9938 51.0687 61.2254 53.1758 61.2058 55.4758C61.2009 55.8907 61.1829 57.284 60.3972 58.135C59.7602 58.8244 58.0712 59.8551 57.5044 59.8698C57.2593 59.8763 56.2597 60.0527 55.046 59.8028C53.3701 59.4581 53.2329 59.4483 51.6386 58.8489C50.8578 58.5548 50.3188 58.4062 49.9986 58.287C49.3305 58.0354 48.4092 57.3248 49.6017 56.2157C50.7941 55.1082 51.8183 54.6476 52.1319 53.2053H44.8597C45.1733 54.6476 46.1975 55.1082 47.39 56.2157C48.5824 57.3248 47.6611 58.0354 46.993 58.287C46.6729 58.4062 46.1338 58.5548 45.353 58.8489C43.7588 59.4483 43.6216 59.4581 41.9456 59.8028C40.732 60.0527 39.7323 59.8763 39.4873 59.8698C38.9204 59.8551 37.2314 58.8244 36.5944 58.135C35.8087 57.284 35.7907 55.8907 35.7858 55.4758C35.7662 53.1758 36.9979 51.0687 37.563 51.1455C38.1282 51.2222 39.0675 51.7204 39.0675 51.7204C39.0675 51.7204 39.0038 50.8204 36.5993 48.4159C33.5055 45.1964 33.9858 44.0252 34.1115 42.8115C34.2373 41.5995 35.1994 40.6161 36.0357 40.8465C36.8721 41.0768 38.8992 43.7687 40.8855 43.7687C42.8718 43.7687 43.9401 42.5828 43.9401 42.5828C43.9401 42.5828 43.2704 46.3463 44.1067 48.4159C44.0022 47.1614 44.2537 45.2388 44.5036 43.6283C44.7486 42.0634 46.2057 38.3342 46.2874 38.1267C46.2057 38.2738 45.5294 39.7553 43.9401 40.229C42.287 40.7207 38.6591 39.4253 36.1191 39.1117C33.5774 38.7981 33.7979 42.248 33.7979 42.248C33.7979 42.248 33.2327 41.8086 33.0449 39.048C32.857 36.2891 35.6159 30.4544 41.1371 29.5756C46.3805 28.7425 48.3145 31.4148 48.4958 31.686C48.6771 31.4148 50.6111 28.7425 55.8546 29.5756C61.3757 30.4544 64.1346 36.2891 63.9468 39.048Z" fill="#FF8500"/>
<path d="M57.1989 61.227C57.1989 61.227 56.4916 62.9422 55.0509 64.69C53.6102 66.4378 51.4344 68.2166 48.4991 68.344H48.4926C42.6203 68.0892 39.7927 61.227 39.7927 61.227C39.7927 61.227 41.4197 61.8723 43.8731 60.9167C45.1587 60.4152 46.2759 60.1539 47.091 60.0183C47.9045 59.8811 48.4158 59.8696 48.4909 59.8696H48.5007C48.651 59.8713 50.5458 59.9137 53.1185 60.9167C55.572 61.8723 57.1989 61.227 57.1989 61.227Z" fill="#FF8500"/>
<defs>
<clipPath id="clip0_150_780">
<rect width="247.793" height="97" fill="white"/>
</clipPath>
</defs>
</svg>
