<svg xmlns="http://www.w3.org/2000/svg" xmlns:xlink="http://www.w3.org/1999/xlink" width="600" height="800" viewBox="0 0 600 800"><rect width="100%" height="100%" fill="#DDDDDD"/><path d="M153.71 370.72L136.34 391.98L134.31 394.49Q136.02 393.64 137.98 393.18Q139.94 392.71 142.21 392.71L142.21 392.71Q145.53 392.71 148.67 393.80Q151.81 394.90 154.20 397.10Q156.59 399.31 158.05 402.59Q159.51 405.87 159.51 410.25L159.51 410.25Q159.51 414.34 158.01 417.92Q156.51 421.51 153.79 424.18Q151.08 426.85 147.25 428.39Q143.43 429.93 138.81 429.93L138.81 429.93Q134.11 429.93 130.39 428.43Q126.66 426.93 124.03 424.24Q121.39 421.55 120.00 417.76Q118.60 413.97 118.60 409.36L118.60 409.36Q118.60 405.22 120.28 400.87Q121.96 396.52 125.49 391.82L125.49 391.82L139.46 373.07Q140.19 372.10 141.58 371.41Q142.98 370.72 144.80 370.72L144.80 370.72L153.71 370.72ZM138.61 421.75L138.61 421.75Q141.00 421.75 143.00 420.94Q145.01 420.13 146.44 418.67Q147.88 417.21 148.69 415.25Q149.50 413.28 149.50 410.98L149.50 410.98Q149.50 408.46 148.73 406.46Q147.96 404.45 146.55 403.06Q145.13 401.66 143.14 400.93Q141.16 400.20 138.77 400.20L138.77 400.20Q136.38 400.20 134.44 401.01Q132.49 401.82 131.11 403.26Q129.74 404.70 128.97 406.66Q128.20 408.63 128.20 410.89L128.20 410.89Q128.20 413.32 128.87 415.33Q129.54 417.33 130.85 418.75Q132.17 420.17 134.11 420.96Q136.06 421.75 138.61 421.75ZM207.13 400L207.13 400Q207.13 407.65 205.49 413.30Q203.85 418.95 200.96 422.64Q198.06 426.32 194.11 428.13Q190.16 429.93 185.59 429.93L185.59 429.93Q181.01 429.93 177.10 428.13Q173.19 426.32 170.32 422.64Q167.44 418.95 165.82 413.30Q164.20 407.65 164.20 400L164.20 400Q164.20 392.31 165.82 386.68Q167.44 381.05 170.32 377.36Q173.19 373.68 177.10 371.87Q181.01 370.07 185.59 370.07L185.59 370.07Q190.16 370.07 194.11 371.87Q198.06 373.68 200.96 377.36Q203.85 381.05 205.49 386.68Q207.13 392.31 207.13 400ZM196.81 400L196.81 400Q196.81 393.64 195.87 389.47Q194.94 385.30 193.38 382.83Q191.82 380.36 189.80 379.37Q187.77 378.37 185.59 378.37L185.59 378.37Q183.44 378.37 181.44 379.37Q179.43 380.36 177.89 382.83Q176.35 385.30 175.44 389.47Q174.53 393.64 174.53 400L174.53 400Q174.53 406.36 175.44 410.53Q176.35 414.70 177.89 417.17Q179.43 419.64 181.44 420.63Q183.44 421.63 185.59 421.63L185.59 421.63Q187.77 421.63 189.80 420.63Q191.82 419.64 193.38 417.17Q194.94 414.70 195.87 410.53Q196.81 406.36 196.81 400ZM254.11 400L254.11 400Q254.11 407.65 252.47 413.30Q250.83 418.95 247.94 422.64Q245.04 426.32 241.09 428.13Q237.14 429.93 232.57 429.93L232.57 429.93Q227.99 429.93 224.08 428.13Q220.17 426.32 217.30 422.64Q214.42 418.95 212.80 413.30Q211.18 407.65 211.18 400L211.18 400Q211.18 392.31 212.80 386.68Q214.42 381.05 217.30 377.36Q220.17 373.68 224.08 371.87Q227.99 370.07 232.57 370.07L232.57 370.07Q237.14 370.07 241.09 371.87Q245.04 373.68 247.94 377.36Q250.83 381.05 252.47 386.68Q254.11 392.31 254.11 400ZM243.79 400L243.79 400Q243.79 393.64 242.85 389.47Q241.92 385.30 240.36 382.83Q238.80 380.36 236.78 379.37Q234.75 378.37 232.57 378.37L232.57 378.37Q230.42 378.37 228.42 379.37Q226.41 380.36 224.87 382.83Q223.33 385.30 222.42 389.47Q221.51 393.64 221.51 400L221.51 400Q221.51 406.36 222.42 410.53Q223.33 414.70 224.87 417.17Q226.41 419.64 228.42 420.63Q230.42 421.63 232.57 421.63L232.57 421.63Q234.75 421.63 236.78 420.63Q238.80 419.64 240.36 417.17Q241.92 414.70 242.85 410.53Q243.79 406.36 243.79 400ZM318.43 415.88L313.12 421.10L299.39 407.37L285.54 421.18L280.24 415.96L294.09 402.07L280.88 388.86L286.15 383.60L299.35 396.80L312.47 383.68L317.82 388.94L304.66 402.11L318.43 415.88ZM365.97 422.11L365.97 422.11Q368.45 422.11 370.31 421.40Q372.17 420.70 373.45 419.44Q374.72 418.18 375.37 416.44Q376.02 414.70 376.02 412.68L376.02 412.68Q376.02 407.86 373.35 405.39Q370.67 402.92 365.97 402.92L365.97 402.92Q361.28 402.92 358.60 405.39Q355.93 407.86 355.93 412.68L355.93 412.68Q355.93 414.70 356.58 416.44Q357.23 418.18 358.50 419.44Q359.78 420.70 361.64 421.40Q363.50 422.11 365.97 422.11ZM365.97 377.60L365.97 377.60Q363.75 377.60 362.13 378.29Q360.51 378.98 359.43 380.13Q358.36 381.29 357.85 382.79Q357.35 384.29 357.35 385.95L357.35 385.95Q357.35 387.69 357.77 389.33Q358.20 390.97 359.21 392.24Q360.22 393.52 361.88 394.29Q363.54 395.06 365.97 395.06L365.97 395.06Q368.40 395.06 370.07 394.29Q371.73 393.52 372.74 392.24Q373.75 390.97 374.18 389.33Q374.60 387.69 374.60 385.95L374.60 385.95Q374.60 384.29 374.07 382.79Q373.55 381.29 372.50 380.13Q371.44 378.98 369.82 378.29Q368.20 377.60 365.97 377.60ZM375.86 398.74L375.86 398.74Q381.20 400.49 383.75 404.07Q386.31 407.65 386.31 412.84L386.31 412.84Q386.31 416.73 384.83 419.89Q383.35 423.04 380.68 425.27Q378.00 427.50 374.26 428.71Q370.51 429.93 365.97 429.93L365.97 429.93Q361.44 429.93 357.69 428.71Q353.95 427.50 351.27 425.27Q348.60 423.04 347.12 419.89Q345.64 416.73 345.64 412.84L345.64 412.84Q345.64 407.65 348.20 404.07Q350.75 400.49 356.09 398.74L356.09 398.74Q351.84 396.96 349.71 393.68Q347.59 390.40 347.59 385.78L347.59 385.78Q347.59 382.46 348.94 379.59Q350.30 376.71 352.73 374.59Q355.16 372.46 358.54 371.27Q361.92 370.07 365.97 370.07L365.97 370.07Q370.02 370.07 373.41 371.27Q376.79 372.46 379.22 374.59Q381.65 376.71 383.00 379.59Q384.36 382.46 384.36 385.78L384.36 385.78Q384.36 390.40 382.24 393.68Q380.11 396.96 375.86 398.74ZM434.42 400L434.42 400Q434.42 407.65 432.78 413.30Q431.14 418.95 428.24 422.64Q425.35 426.32 421.40 428.13Q417.45 429.93 412.87 429.93L412.87 429.93Q408.30 429.93 404.39 428.13Q400.48 426.32 397.61 422.64Q394.73 418.95 393.11 413.30Q391.49 407.65 391.49 400L391.49 400Q391.49 392.31 393.11 386.68Q394.73 381.05 397.61 377.36Q400.48 373.68 404.39 371.87Q408.30 370.07 412.87 370.07L412.87 370.07Q417.45 370.07 421.40 371.87Q425.35 373.68 428.24 377.36Q431.14 381.05 432.78 386.68Q434.42 392.31 434.42 400ZM424.09 400L424.09 400Q424.09 393.64 423.16 389.47Q422.23 385.30 420.67 382.83Q419.11 380.36 417.09 379.37Q415.06 378.37 412.87 378.37L412.87 378.37Q410.73 378.37 408.72 379.37Q406.72 380.36 405.18 382.83Q403.64 385.30 402.73 389.47Q401.82 393.64 401.82 400L401.82 400Q401.82 406.36 402.73 410.53Q403.64 414.70 405.18 417.17Q406.72 419.64 408.72 420.63Q410.73 421.63 412.87 421.63L412.87 421.63Q415.06 421.63 417.09 420.63Q419.11 419.64 420.67 417.17Q422.23 414.70 423.16 410.53Q424.09 406.36 424.09 400ZM481.40 400L481.40 400Q481.40 407.65 479.76 413.30Q478.12 418.95 475.22 422.64Q472.33 426.32 468.38 428.13Q464.43 429.93 459.85 429.93L459.85 429.93Q455.28 429.93 451.37 428.13Q447.46 426.32 444.59 422.64Q441.71 418.95 440.09 413.30Q438.47 407.65 438.47 400L438.47 400Q438.47 392.31 440.09 386.68Q441.71 381.05 444.59 377.36Q447.46 373.68 451.37 371.87Q455.28 370.07 459.85 370.07L459.85 370.07Q464.43 370.07 468.38 371.87Q472.33 373.68 475.22 377.36Q478.12 381.05 479.76 386.68Q481.40 392.31 481.40 400ZM471.07 400L471.07 400Q471.07 393.64 470.14 389.47Q469.21 385.30 467.65 382.83Q466.09 380.36 464.07 379.37Q462.04 378.37 459.85 378.37L459.85 378.37Q457.71 378.37 455.70 379.37Q453.70 380.36 452.16 382.83Q450.62 385.30 449.71 389.47Q448.80 393.64 448.80 400L448.80 400Q448.80 406.36 449.71 410.53Q450.62 414.70 452.16 417.17Q453.70 419.64 455.70 420.63Q457.71 421.63 459.85 421.63L459.85 421.63Q462.04 421.63 464.07 420.63Q466.09 419.64 467.65 417.17Q469.21 414.70 470.14 410.53Q471.07 406.36 471.07 400Z" fill="#999999"/></svg>