<svg width="13" height="36" viewBox="0 0 13 36" fill="none" xmlns="http://www.w3.org/2000/svg">
<path d="M-7.64723e-07 17.5838C0.0145018 24.0763 1.34871 30.1039 4.35067 33.1105C5.69938 34.4613 7.33814 35.1585 9.33945 35.0713C10.5141 35.0132 11.5438 34.6356 12.2544 33.9384C12.791 33.3865 13.11 32.6312 12.965 31.7452L12.0514 26.3421C11.9208 25.4997 11.6598 24.9187 11.2827 24.541C10.8042 24.0617 10.1081 23.9165 9.16542 23.9165L7.67169 23.902C7.43965 23.902 7.26562 23.8003 7.1206 23.6696C6.94658 23.5098 6.85956 23.2919 6.83056 23.1176C6.59852 22.1154 6.36648 20.0675 6.36648 17.5693C6.36648 15.0856 6.54051 13.0376 6.83056 12.0354C6.87406 11.8757 6.96108 11.6578 7.1206 11.498C7.26562 11.3673 7.43965 11.2801 7.65718 11.2656L9.16542 11.2511C10.1081 11.2366 10.8042 11.0913 11.2827 10.612C11.6598 10.2344 11.9208 9.6534 12.0514 8.81098L12.9505 3.46595C13.11 2.55091 12.7765 1.78111 12.1964 1.20013C11.5293 0.502948 10.4996 0.110786 9.31044 0.0817371C7.32363 0.0236394 5.68488 0.778915 4.35067 2.11517C1.34871 5.12175 -1.04915e-06 11.0768 -7.64723e-07 17.5838Z" fill="#FF8500"/>
</svg>
