<?xml version="1.0" encoding="utf-8"?>
<!-- Generator: Adobe Illustrator 27.8.0, SVG Export Plug-In . SVG Version: 6.00 Build 0)  -->
<svg version="1.2" baseProfile="tiny" id="Laag_1" xmlns="http://www.w3.org/2000/svg" xmlns:xlink="http://www.w3.org/1999/xlink"
	 x="0px" y="0px" viewBox="0 0 50.3 86.5" overflow="visible" xml:space="preserve">
<g>
	<path fill="#FF8500" d="M0,43.2c0-2,0.8-3.8,2.2-5.2L37.7,2.5c1.4-1.4,3.2-2.2,5.2-2.2c2,0,3.8,0.8,5.2,2.2s2.2,3.2,2.2,5.2
		s-0.8,3.8-2.2,5.2L17.8,43.2l30.3,30.3c1.4,1.4,2.2,3.2,2.2,5.2s-0.8,3.8-2.2,5.2c-2.9,2.9-7.6,2.9-10.4,0L2.2,48.5
		C0.8,47.1,0,45.2,0,43.2z"/>
	<path fill="#FF8500" d="M139.3,68.7c-2,0-3.8-0.8-5.2-2.2L98.5,31c-1.4-1.4-2.2-3.2-2.2-5.2s0.8-3.8,2.2-5.2
		c1.4-1.4,3.2-2.2,5.2-2.2s3.8,0.8,5.2,2.2l30.3,30.3l30.3-30.3c1.4-1.4,3.2-2.2,5.2-2.2s3.8,0.8,5.2,2.2c2.9,2.9,2.9,7.6,0,10.4
		l-35.6,35.6C143.1,67.9,141.2,68.7,139.3,68.7z"/>
</g>
</svg>
