<svg width="135" height="135" viewBox="0 0 135 135" fill="none" xmlns="http://www.w3.org/2000/svg">
<path fill-rule="evenodd" clip-rule="evenodd" d="M135 67.5C135 104.779 104.779 135 67.5 135C30.2207 135 0 104.779 0 67.5C0 30.2207 30.2207 0 67.5 0C104.779 0 135 30.2207 135 67.5ZM92.5498 82.7402C104.52 67.3398 110.7 55.2202 111.11 46.3599V46.3701C111.65 34.52 107.24 28.4502 97.8901 28.1802C85.2798 27.77 76.73 34.8799 72.2598 49.5298C74.5698 48.54 76.8198 48.04 79 48.04C83.6299 48.04 85.6699 50.6401 85.1299 55.8301C84.8501 58.98 82.8101 63.5601 79 69.5698C75.1899 75.5898 72.3198 78.6001 70.4199 78.6001C67.9702 78.6001 65.7202 73.9702 63.6802 64.6899C62.9902 61.9702 61.77 55.02 60 43.8398C58.3701 33.48 54.0098 28.6401 46.9302 29.3198C43.9302 29.5898 39.4302 32.3198 33.4399 37.4902C29.0801 41.4399 24.6499 45.3799 20.1602 49.3301L24.4399 54.8398C28.52 51.98 30.8999 50.5498 31.5801 50.5498C34.71 50.5498 37.6299 55.4502 40.3501 65.2402C41.5752 69.7305 42.7979 74.2178 44.02 78.7051C45.2422 83.1924 46.4648 87.6797 47.6899 92.1699C51.3599 101.97 55.8398 106.86 61.1499 106.86C69.71 106.86 80.1802 98.8198 92.5498 82.7402Z" fill="#010201"/>
</svg>
